<svg id="Layer_1" data-name="Layer 1" xmlns="http://www.w3.org/2000/svg" viewBox="0 0 670.78 645.76"><defs><style>.cls-1{opacity:0.29;}.cls-2{fill:#808285;}.cls-3{fill:#f99c1c;}.cls-4{fill:#145fad;}.cls-5{fill:#b17029;}.cls-6{fill:#447dc0;}.cls-7{fill:#65a5da;}</style></defs><title>Artboard 1</title><g class="cls-1"><path class="cls-2" d="M304,357.68q5.86-20.26,14.16-34.18t21.73-32q9.76-13.42,15.38-22.09a88.32,88.32,0,0,0,9.28-19.29,69.56,69.56,0,0,0,3.66-22.83v-.24q0-21.24-10.86-33t-30.4-11.72q-19.77,0-30.64,14.53t-11.11,41.14v.24H234.65v-.24q1-32.24,12.21-55.06t31.5-34.79q20.25-12,48.09-12,29.06,0,49.81,10.74a73.05,73.05,0,0,1,31.61,31.13q10.86,20.38,10.87,49.19v.25a101,101,0,0,1-4.52,31.25,107.31,107.31,0,0,1-11,24.17q-6.47,10.25-17.7,24.9a333,333,0,0,0-19.77,27.71,120,120,0,0,0-12.7,29.05q-5.12,17-5.12,39.19H298.13Q298.13,377.95,304,357.68Zm-5.86,87.4h49.81v49.8H298.13Z"/></g><path class="cls-3" d="M160.9,297.32h2.46l5.24,20,4.52-20h3.72l-6.24,25.56H167L162.23,305l-4.92,17.86h-3.65l-6.24-25.56h3.72l4.52,20Z"/><path class="cls-3" d="M180.18,297.32h3.59v25.56h-3.59Zm11.08,14.51a4.16,4.16,0,0,0-1-3,3.65,3.65,0,0,0-2.81-1.06,3.75,3.75,0,0,0-2.71.92,3.39,3.39,0,0,0-1,2.58l-.37-3.51a6.52,6.52,0,0,1,2.2-2.51,5.45,5.45,0,0,1,3-.89,5.67,5.67,0,0,1,4.6,1.95,8.32,8.32,0,0,1,1.62,5.49v11.07h-3.58Z"/><path class="cls-3" d="M201.08,321.75a5.24,5.24,0,0,1-1.67-4.25,5.16,5.16,0,0,1,1.53-4.06,6.81,6.81,0,0,1,4.62-1.35h5.19L211,315h-5.42a3,3,0,0,0-2.1.63,2.43,2.43,0,0,0-.69,1.9,2.38,2.38,0,0,0,.92,2.06,4.76,4.76,0,0,0,2.8.67,8.13,8.13,0,0,0,3.07-.44,1.43,1.43,0,0,0,1-1.37L211,321a4,4,0,0,1-1.17,1.22,5.25,5.25,0,0,1-1.61.71,8.07,8.07,0,0,1-2.05.24A7.76,7.76,0,0,1,201.08,321.75Zm9.51-10.43a3.84,3.84,0,0,0-1-2.79,3.58,3.58,0,0,0-2.71-1,7.08,7.08,0,0,0-2.14.33,6.3,6.3,0,0,0-1.85.93L200.31,307a6.82,6.82,0,0,1,2.73-1.94,9.74,9.74,0,0,1,3.77-.7,8.76,8.76,0,0,1,3.89.8,5.59,5.59,0,0,1,2.46,2.32,7.51,7.51,0,0,1,.84,3.67v11.72h-3.41Z"/><path class="cls-3" d="M218.05,304.64h8.22v3.23h-8.22Zm2.9,17.11a5.53,5.53,0,0,1-1-3.61V299.33h3.58v18.84a1.69,1.69,0,0,0,.27,1,.88.88,0,0,0,.77.36h1.72V323H224.2A4,4,0,0,1,221,321.75Z"/><path class="cls-3" d="M235.76,304.64h3.75l3.23,13,4.56-13h2.49l4.55,13,3.24-13h3.74l-5.62,18.24H253l-4.45-12.6-4.44,12.6h-2.71Z"/><path class="cls-3" d="M265.19,297.32h3.59v3.59h-3.59Zm0,7.32h3.59v18.24h-3.59Z"/><path class="cls-3" d="M277.81,318.17a1.62,1.62,0,0,0,.29,1,1,1,0,0,0,.82.36h1.69V323H278.5a4,4,0,0,1-3.16-1.26,5.26,5.26,0,0,1-1.11-3.57V297.32h3.58Z"/><path class="cls-3" d="M288.23,318.17a1.62,1.62,0,0,0,.29,1,1,1,0,0,0,.82.36H291V323h-2.11a4,4,0,0,1-3.15-1.26,5.21,5.21,0,0,1-1.12-3.57V297.32h3.58Z"/><path class="cls-3" d="M320,297.32h3.35v25.56h-3.49V303.74l.17,1.13-6.29,14.46h-2.5l-6.29-14.11.17-1.48v19.14h-3.49V297.32h3.35l7.51,16.88Z"/><path class="cls-3" d="M329.28,297.32h3.59v3.59h-3.59Zm0,7.32h3.59v18.24h-3.59Z"/><path class="cls-3" d="M341.9,318.17a1.62,1.62,0,0,0,.29,1,1,1,0,0,0,.82.36h1.69V323h-2.11a4,4,0,0,1-3.16-1.26,5.27,5.27,0,0,1-1.12-3.57V297.32h3.59Z"/><path class="cls-3" d="M352.32,318.17a1.62,1.62,0,0,0,.29,1,1,1,0,0,0,.82.36h1.69V323H353a4,4,0,0,1-3.16-1.26,5.26,5.26,0,0,1-1.11-3.57V297.32h3.58Z"/><path class="cls-3" d="M359.78,321.75a5.21,5.21,0,0,1-1.67-4.25,5.16,5.16,0,0,1,1.53-4.06,6.81,6.81,0,0,1,4.62-1.35h5.19l.24,2.88h-5.41a3,3,0,0,0-2.1.63,2.4,2.4,0,0,0-.7,1.9,2.36,2.36,0,0,0,.93,2.06,4.74,4.74,0,0,0,2.8.67,8.2,8.2,0,0,0,3.07-.44,1.45,1.45,0,0,0,1-1.37l.37,2.56a4.26,4.26,0,0,1-1.17,1.22,5.36,5.36,0,0,1-1.61.71,8.15,8.15,0,0,1-2.06.24A7.71,7.71,0,0,1,359.78,321.75Zm9.51-10.43a3.84,3.84,0,0,0-1-2.79,3.6,3.6,0,0,0-2.72-1,7.07,7.07,0,0,0-2.13.33,6.24,6.24,0,0,0-1.86.93L359,307a6.92,6.92,0,0,1,2.74-1.94,9.74,9.74,0,0,1,3.77-.7,8.72,8.72,0,0,1,3.88.8,5.59,5.59,0,0,1,2.46,2.32,7.4,7.4,0,0,1,.85,3.67v11.72h-3.41Z"/><path class="cls-3" d="M378.15,304.64h3.58v18.24h-3.58Zm8.84,3.44a4.33,4.33,0,0,0-1.67-.3,3.62,3.62,0,0,0-2.65.94,3.57,3.57,0,0,0-.94,2.61l-.37-3.51a6.74,6.74,0,0,1,2.18-2.54,5.12,5.12,0,0,1,3-.91,6.74,6.74,0,0,1,2.26.36,5,5,0,0,1,1.76,1.07L388.18,309A2.92,2.92,0,0,0,387,308.08Z"/><path class="cls-3" d="M395.52,322.33a5.51,5.51,0,0,1-2.15-2.54,9.9,9.9,0,0,1-.74-4v-4a10.15,10.15,0,0,1,.72-4,5.47,5.47,0,0,1,2.1-2.54,6.11,6.11,0,0,1,3.32-.87,5.5,5.5,0,0,1,3,.84,6.34,6.34,0,0,1,2.17,2.38l-.37,3.72a4.32,4.32,0,0,0-.42-2,2.91,2.91,0,0,0-1.22-1.26,4,4,0,0,0-1.95-.43,3.47,3.47,0,0,0-2.75,1.11,4.55,4.55,0,0,0-1,3.11v4a4.42,4.42,0,0,0,1,3.07,3.52,3.52,0,0,0,2.75,1.08,3.93,3.93,0,0,0,1.95-.45,3,3,0,0,0,1.22-1.29,4.49,4.49,0,0,0,.42-2l.25,3.85a5.25,5.25,0,0,1-1.79,2.27,5,5,0,0,1-3.05.91A6.44,6.44,0,0,1,395.52,322.33Zm8-25h3.59v25.56h-3.59Z"/><path class="cls-3" d="M424.78,323.15l-2-1.18a8.06,8.06,0,0,1-3.12-3.34,10.81,10.81,0,0,1-1.11-5v-7a10.81,10.81,0,0,1,1.11-5,8,8,0,0,1,3.12-3.35,9,9,0,0,1,4.67-1.19,8.74,8.74,0,0,1,4,.94,8.56,8.56,0,0,1,3.08,2.66,9.92,9.92,0,0,1,1.68,4h-3.67a5.74,5.74,0,0,0-1.12-2.13,5.42,5.42,0,0,0-1.83-1.45,5.19,5.19,0,0,0-4.93.24,5,5,0,0,0-1.82,2.12,7.23,7.23,0,0,0-.65,3.18v7a7.2,7.2,0,0,0,.65,3.16,4.93,4.93,0,0,0,1.82,2.12,5,5,0,0,0,2.75.75,5.13,5.13,0,0,0,2.18-.48,5,5,0,0,0,1.83-1.4,5.55,5.55,0,0,0,1.12-2.22h3.67a9.92,9.92,0,0,1-1.68,4,8.62,8.62,0,0,1-7.12,3.61Z"/><path class="cls-3" d="M443.92,322.21a6.13,6.13,0,0,1-2.57-2.71,9.58,9.58,0,0,1-.89-4.3v-3a9.35,9.35,0,0,1,.89-4.24,6.08,6.08,0,0,1,2.57-2.69,9.35,9.35,0,0,1,8.13,0,6.08,6.08,0,0,1,2.57,2.69,9.35,9.35,0,0,1,.89,4.24v3a9.45,9.45,0,0,1-.89,4.27,6.19,6.19,0,0,1-2.57,2.69,9.26,9.26,0,0,1-8.13,0Zm7-3.65a4.86,4.86,0,0,0,1-3.31v-3a4.79,4.79,0,0,0-1-3.29,4.22,4.22,0,0,0-5.81,0,4.79,4.79,0,0,0-1,3.29v3a4.86,4.86,0,0,0,1,3.31,4.17,4.17,0,0,0,5.81,0Z"/><path class="cls-3" d="M463.75,315.73a4.18,4.18,0,0,0,1,3,3.57,3.57,0,0,0,2.75,1.05,3.72,3.72,0,0,0,2.72-.94,3.48,3.48,0,0,0,1-2.65l.25,3.81a5.29,5.29,0,0,1-1.83,2.27,5.18,5.18,0,0,1-3.11.92,5.77,5.77,0,0,1-4.67-1.95,8.2,8.2,0,0,1-1.64-5.47V304.64h3.58Zm7.42-11.09h3.57v18.24h-3.57Z"/><path class="cls-3" d="M480.19,304.64h3.58v18.24h-3.58Zm11.07,7.19a4.16,4.16,0,0,0-1-3,3.68,3.68,0,0,0-2.81-1.06,3.75,3.75,0,0,0-2.72.93,3.5,3.5,0,0,0-1,2.62l-.37-3.51a6.6,6.6,0,0,1,2.21-2.55,5.35,5.35,0,0,1,3-.9,5.63,5.63,0,0,1,4.59,1.95,8.27,8.27,0,0,1,1.63,5.49v11.07h-3.59Z"/><path class="cls-3" d="M498.89,304.64h8.23v3.23h-8.23Zm2.91,17.11a5.47,5.47,0,0,1-1-3.61V299.33h3.59v18.84a1.76,1.76,0,0,0,.26,1,.92.92,0,0,0,.78.36h1.72V323H505A4,4,0,0,1,501.8,321.75Z"/><path class="cls-3" d="M510.11,304.64h3.65l5.61,15.85-2,3.89Zm16.15,0-7.77,22.51a5.19,5.19,0,0,1-1.11,2,3.82,3.82,0,0,1-1.68,1.05,8.35,8.35,0,0,1-2.47.31h-.72v-3.44h.72a2.81,2.81,0,0,0,1.6-.41,3.17,3.17,0,0,0,1-1.38l6.75-20.62Z"/><path class="cls-3" d="M153.29,361.37a1.56,1.56,0,0,0,.29,1,1,1,0,0,0,.82.36h1.68v3.41H154a4,4,0,0,1-3.15-1.26,5.21,5.21,0,0,1-1.12-3.57V340.52h3.59Z"/><path class="cls-3" d="M163.06,365.42a6.21,6.21,0,0,1-2.57-2.72,9.45,9.45,0,0,1-.89-4.3v-3a9.22,9.22,0,0,1,.89-4.24,6.08,6.08,0,0,1,2.57-2.69,9.33,9.33,0,0,1,8.12,0,6.05,6.05,0,0,1,2.58,2.69,9.35,9.35,0,0,1,.89,4.24v3a9.45,9.45,0,0,1-.89,4.27,6.23,6.23,0,0,1-2.58,2.7,9.33,9.33,0,0,1-8.12,0Zm7-3.66a4.86,4.86,0,0,0,1-3.31v-3a4.79,4.79,0,0,0-1-3.29,4.23,4.23,0,0,0-5.82,0,4.84,4.84,0,0,0-1,3.29v3a4.91,4.91,0,0,0,1,3.31,4.18,4.18,0,0,0,5.82,0Z"/><path class="cls-3" d="M182.68,365.42a6.17,6.17,0,0,1-2.58-2.72,9.59,9.59,0,0,1-.88-4.3v-3a9.35,9.35,0,0,1,.88-4.24,6.05,6.05,0,0,1,2.58-2.69,9.33,9.33,0,0,1,8.12,0,6.08,6.08,0,0,1,2.57,2.69,9.22,9.22,0,0,1,.89,4.24v3a9.32,9.32,0,0,1-.89,4.27,6.27,6.27,0,0,1-2.57,2.7,9.33,9.33,0,0,1-8.12,0Zm7-3.66a4.91,4.91,0,0,0,1-3.31v-3a4.84,4.84,0,0,0-1-3.29,4.23,4.23,0,0,0-5.82,0,4.79,4.79,0,0,0-1,3.29v3a4.86,4.86,0,0,0,1,3.31,4.18,4.18,0,0,0,5.82,0Z"/><path class="cls-3" d="M199.36,340.52H203v25.56h-3.59Zm1.55,18.64,9.38-11.32h4.22l-13.83,15.57Zm4.23-3.61,2.31-2.39,8,12.92h-3.9Z"/><path class="cls-3" d="M228.14,361.37a1.56,1.56,0,0,0,.29,1,1,1,0,0,0,.81.36h1.69v3.41h-2.11a4,4,0,0,1-3.15-1.26,5.21,5.21,0,0,1-1.12-3.57V340.52h3.59Z"/><path class="cls-3" d="M235,340.52h3.59v3.59H235Zm0,7.32h3.59v18.24H235Z"/><path class="cls-3" d="M244,340.52h3.58v25.56H244Zm1.55,18.64,9.38-11.32h4.22l-13.83,15.57Zm4.23-3.61,2.3-2.39,8,12.92h-3.91Z"/><path class="cls-3" d="M268,366.35l-1.79-1a6.4,6.4,0,0,1-2.73-2.79,9.58,9.58,0,0,1-.94-4.44v-2.05a10.83,10.83,0,0,1,.9-4.63,6.48,6.48,0,0,1,2.63-2.91,8.1,8.1,0,0,1,4.15-1,6.54,6.54,0,0,1,3.9,1.15,7.08,7.08,0,0,1,2.47,3.3,14.11,14.11,0,0,1,.85,5.19v1.19h-12.3v-2.88H274a6.09,6.09,0,0,0-1.15-3.47,3.22,3.22,0,0,0-2.66-1.24,3.9,3.9,0,0,0-3.16,1.33,5.76,5.76,0,0,0-1.11,3.78v2.32a4.77,4.77,0,0,0,1.19,3.48,4.56,4.56,0,0,0,3.4,1.22,5.75,5.75,0,0,0,2.16-.44,6.51,6.51,0,0,0,1.91-1.23l2.36,2.35a9.81,9.81,0,0,1-3,2,8.61,8.61,0,0,1-3.39.72Z"/><path class="cls-3" d="M288.5,340.52h3.58v3.59H288.5Zm0,7.32h3.58v18.24H288.5Z"/><path class="cls-3" d="M297.53,347.84h3.59v18.24h-3.59ZM308.61,355a4.2,4.2,0,0,0-1-3,4.33,4.33,0,0,0-5.53-.12,3.47,3.47,0,0,0-1,2.61l-.37-3.51a6.52,6.52,0,0,1,2.21-2.55,5.32,5.32,0,0,1,3-.9,5.67,5.67,0,0,1,4.6,1.95,8.32,8.32,0,0,1,1.62,5.49v11.07h-3.58Z"/><path class="cls-3" d="M323.23,363l8.92-11.88a9.19,9.19,0,0,0,1.2-2.12,5.55,5.55,0,0,0,.43-2.05v0a3.12,3.12,0,0,0-.9-2.38,4.11,4.11,0,0,0-5.08.08,4.23,4.23,0,0,0-1.17,2.61v0h-3.71v0a9.57,9.57,0,0,1,1.29-3.75,6.5,6.5,0,0,1,2.52-2.37,7.46,7.46,0,0,1,3.57-.82,8.92,8.92,0,0,1,3.9.78,5.45,5.45,0,0,1,2.46,2.28,7.16,7.16,0,0,1,.85,3.6v0a7.84,7.84,0,0,1-.57,2.83,12.1,12.1,0,0,1-1.56,2.85L328,362.67h9.67v3.41H323.23Z"/><path class="cls-3" d="M344.07,364.43a7.39,7.39,0,0,1-1.85-5.34V347.47a7.33,7.33,0,0,1,1.86-5.35,8.71,8.71,0,0,1,10.87,0,7.32,7.32,0,0,1,1.86,5.36v11.62a6.59,6.59,0,0,1-7.3,7.26A7.23,7.23,0,0,1,344.07,364.43Zm8.25-2.49a4.09,4.09,0,0,0,.9-2.85V347.47a4.12,4.12,0,0,0-.9-2.86,4.48,4.48,0,0,0-5.62,0,4.12,4.12,0,0,0-.9,2.86v11.62a4,4,0,0,0,.91,2.85,4.43,4.43,0,0,0,5.61,0Z"/><path class="cls-3" d="M366.37,366.35l-1.64-.79a6.45,6.45,0,0,1-2.62-2.26,8.17,8.17,0,0,1-1.26-3.58h3.66a3.8,3.8,0,0,0,.68,1.79,3.21,3.21,0,0,0,1.36,1.05,5.12,5.12,0,0,0,2,.34,3.81,3.81,0,0,0,2.76-.95,3.52,3.52,0,0,0,1-2.67v-.77a4.33,4.33,0,0,0-.93-3,3.37,3.37,0,0,0-2.64-1h-1.81v-3.41h1.81a3,3,0,0,0,2.32-.9,3.6,3.6,0,0,0,.83-2.53v-.79a3.07,3.07,0,0,0-.87-2.34,3.46,3.46,0,0,0-2.47-.82,3.76,3.76,0,0,0-1.64.34,3.14,3.14,0,0,0-1.22,1.05,4.87,4.87,0,0,0-.73,1.79h-3.64a9.41,9.41,0,0,1,1.33-3.59,6.54,6.54,0,0,1,2.47-2.27,7.41,7.41,0,0,1,3.43-.77,7.08,7.08,0,0,1,5.11,1.74,6.48,6.48,0,0,1,1.81,4.91v.42a5.54,5.54,0,0,1-1,3.34,5.86,5.86,0,0,1-2.94,2.07,5.2,5.2,0,0,1,3.24,2.06,6.77,6.77,0,0,1,1.15,4.08v.42a7.77,7.77,0,0,1-.86,3.81,5.66,5.66,0,0,1-2.5,2.41,8.78,8.78,0,0,1-4,.83Z"/><path class="cls-3" d="M382.8,364.43a7.35,7.35,0,0,1-1.86-5.34V347.47a7.29,7.29,0,0,1,1.87-5.35,8.71,8.71,0,0,1,10.87,0,7.36,7.36,0,0,1,1.85,5.36v11.62a7.35,7.35,0,0,1-1.86,5.35,8.67,8.67,0,0,1-10.87,0Zm8.24-2.49a4.1,4.1,0,0,0,.91-2.85V347.47a4.12,4.12,0,0,0-.9-2.86,4.5,4.5,0,0,0-5.63,0,4.17,4.17,0,0,0-.89,2.86v11.62a4.09,4.09,0,0,0,.9,2.85,4.43,4.43,0,0,0,5.61,0Z"/><path class="cls-3" d="M403.86,356.2a10.91,10.91,0,0,1,1-2.46c.4-.66.92-1.43,1.57-2.3q.71-1,1.11-1.59a6.6,6.6,0,0,0,.66-1.39,4.91,4.91,0,0,0,.27-1.64v0a3.31,3.31,0,0,0-.79-2.37,2.8,2.8,0,0,0-2.18-.85,2.59,2.59,0,0,0-2.21,1.05,4.94,4.94,0,0,0-.8,3v0h-3.64v0a9.56,9.56,0,0,1,.88-4,5.84,5.84,0,0,1,2.27-2.51,6.73,6.73,0,0,1,3.46-.86,7.8,7.8,0,0,1,3.59.77,5.3,5.3,0,0,1,2.27,2.25,7.41,7.41,0,0,1,.79,3.54h0a7.1,7.1,0,0,1-.33,2.25,8.1,8.1,0,0,1-.79,1.75c-.31.49-.74,1.09-1.28,1.79s-1.06,1.41-1.42,2a8.51,8.51,0,0,0-.91,2.1,9.59,9.59,0,0,0-.37,2.82h-3.59A12.08,12.08,0,0,1,403.86,356.2Zm-.42,6.3H407v3.58h-3.59Z"/><path class="cls-3" d="M422.11,363,431,351.09a8.88,8.88,0,0,0,1.21-2.12,5.76,5.76,0,0,0,.43-2.05v0a3.12,3.12,0,0,0-.9-2.38,3.6,3.6,0,0,0-2.55-.84,3.53,3.53,0,0,0-2.53.92,4.24,4.24,0,0,0-1.18,2.61v0h-3.71v0a9.57,9.57,0,0,1,1.3-3.75,6.5,6.5,0,0,1,2.52-2.37,7.46,7.46,0,0,1,3.57-.82,8.92,8.92,0,0,1,3.9.78,5.45,5.45,0,0,1,2.46,2.28,7.26,7.26,0,0,1,.84,3.6v0a7.82,7.82,0,0,1-.56,2.83,12.47,12.47,0,0,1-1.56,2.85l-7.4,10.05h9.66v3.41H422.11Z"/><path class="cls-3" d="M443,364.43a7.35,7.35,0,0,1-1.86-5.34V347.47a7.34,7.34,0,0,1,1.87-5.35,8.71,8.71,0,0,1,10.87,0,7.32,7.32,0,0,1,1.85,5.36v11.62a7.35,7.35,0,0,1-1.86,5.35,8.67,8.67,0,0,1-10.87,0Zm8.24-2.49a4,4,0,0,0,.91-2.85V347.47a4.12,4.12,0,0,0-.9-2.86,4.48,4.48,0,0,0-5.62,0,4.12,4.12,0,0,0-.9,2.86v11.62a4,4,0,0,0,.91,2.85,4.42,4.42,0,0,0,5.6,0Z"/><path class="cls-3" d="M460.61,359.05l8.57-18.51h3.7l-8.37,18.3H477v3.32H460.61Zm11-8h3.5V366.1h-3.5Z"/><path class="cls-3" d="M483.29,364.43a7.35,7.35,0,0,1-1.85-5.34V347.47a7.33,7.33,0,0,1,1.86-5.35,8.71,8.71,0,0,1,10.87,0,7.32,7.32,0,0,1,1.86,5.36v11.62a7.35,7.35,0,0,1-1.87,5.35,8.67,8.67,0,0,1-10.87,0Zm8.24-2.49a4,4,0,0,0,.91-2.85V347.47a4.12,4.12,0,0,0-.9-2.86,4.48,4.48,0,0,0-5.62,0,4.12,4.12,0,0,0-.9,2.86v11.62a4,4,0,0,0,.91,2.85,4.42,4.42,0,0,0,5.6,0Z"/><path class="cls-3" d="M504.36,356.2a10.47,10.47,0,0,1,1-2.46c.4-.66.92-1.43,1.56-2.3q.71-1,1.11-1.59a6.63,6.63,0,0,0,.67-1.39,5.17,5.17,0,0,0,.26-1.64v0a3.35,3.35,0,0,0-.78-2.37,2.81,2.81,0,0,0-2.19-.85,2.61,2.61,0,0,0-2.21,1.05,5,5,0,0,0-.8,3v0h-3.63v0a9.56,9.56,0,0,1,.87-4,5.84,5.84,0,0,1,2.27-2.51,6.74,6.74,0,0,1,3.47-.86,7.78,7.78,0,0,1,3.58.77,5.27,5.27,0,0,1,2.28,2.25,7.41,7.41,0,0,1,.78,3.54h0a7.1,7.1,0,0,1-.33,2.25,7.64,7.64,0,0,1-.79,1.75c-.31.49-.73,1.09-1.27,1.79a22.38,22.38,0,0,0-1.42,2,8.51,8.51,0,0,0-.92,2.1,9.94,9.94,0,0,0-.37,2.82h-3.58A12.08,12.08,0,0,1,504.36,356.2Zm-.42,6.3h3.58v3.58h-3.58Z"/><path class="cls-3" d="M38,178.75l.85-1.58,11.23,6.1-.85,1.58Zm3.46-6.38.86-1.58,11.23,6.1-.86,1.58Zm2,8.09,3.39-6.24,1.49.82L45,181.27Z"/><path class="cls-3" d="M55.38,173.1a3,3,0,0,1-1.73.4,4.63,4.63,0,0,1-2-.67l-1.21-.71A4.52,4.52,0,0,1,49,170.74a2.89,2.89,0,0,1-.48-1.7,4.44,4.44,0,0,1,1.95-3.3,2.9,2.9,0,0,1,1.71-.4,4.36,4.36,0,0,1,1.94.66l1.23.72a4.38,4.38,0,0,1,1.52,1.38,2.89,2.89,0,0,1,.48,1.7,3.78,3.78,0,0,1-.59,1.87A3.9,3.9,0,0,1,55.38,173.1Zm.18-3.71a2.3,2.3,0,0,0-1.1-1.21l-1.23-.73a2.26,2.26,0,0,0-1.58-.37,1.76,1.76,0,0,0-1.17.91,1.74,1.74,0,0,0-.23,1.46,2.28,2.28,0,0,0,1.09,1.21l1.23.72a2.31,2.31,0,0,0,1.59.38,1.71,1.71,0,0,0,1.18-.9A1.76,1.76,0,0,0,55.56,169.39Z"/><path class="cls-3" d="M51.84,162.72l1-1.49,6,2-4-5.12.63-1,6.34,1.51L57.39,154l1-1.48,5.82,6.88-.69,1.07-6.14-1.43,3.88,5-.69,1.08Z"/><path class="cls-3" d="M60.75,149l1-1.44,5.89,2.34-3.75-5.33.68-1,6.25,1.84-4.11-4.83,1-1.43,5.46,7.17-.74,1-6.06-1.76L70,150.83l-.74,1Z"/><path class="cls-3" d="M66.27,135.54l1-1.35,1.35,1-1,1.35ZM69,137.63l1-1.35,6.87,5.21-1,1.35Z"/><path class="cls-3" d="M77.73,136.79a.77.77,0,0,0,.46.2.52.52,0,0,0,.38-.2l.49-.63,1.26,1-.61.79a1.88,1.88,0,0,1-1.39.8,2.49,2.49,0,0,1-1.65-.62l-7.74-6.06,1-1.33Z"/><path class="cls-3" d="M80.8,132.94a.79.79,0,0,0,.47.2.47.47,0,0,0,.37-.2l.5-.61,1.26,1-.63.77a1.9,1.9,0,0,1-1.4.79,2.5,2.5,0,0,1-1.64-.65l-7.65-6.18,1.07-1.32Z"/><path class="cls-3" d="M86.44,128.79a2.6,2.6,0,0,1-1.62-.73l-6.76-5.76,1.1-1.29,6.77,5.77a.85.85,0,0,0,.45.22.45.45,0,0,0,.37-.17l.53-.62,1.22,1-.63.75A1.9,1.9,0,0,1,86.44,128.79Zm-7-4.19,2.52-3,1.16,1-2.52,3Z"/><path class="cls-3" d="M80.93,117.48l1.13-1.26,9,8-1.13,1.26Zm8.59.66a2,2,0,0,0-1.37-.58,1.74,1.74,0,0,0-1.25.65,1.83,1.83,0,0,0-.54,1.25,1.63,1.63,0,0,0,.61,1.15l-1.35-1a3,3,0,0,1-.19-1.56,2.54,2.54,0,0,1,.64-1.34,2.65,2.65,0,0,1,2.13-1,3.93,3.93,0,0,1,2.44,1.16l3.9,3.48-1.12,1.26Z"/><path class="cls-3" d="M97.94,116.91l-.91.31a3,3,0,0,1-1.84,0,4.5,4.5,0,0,1-1.83-1.12l-.71-.67a5,5,0,0,1-1.29-1.81,3.11,3.11,0,0,1-.15-1.85,3.9,3.9,0,0,1,1-1.75,3.09,3.09,0,0,1,1.66-1,3.38,3.38,0,0,1,1.93.22,6.73,6.73,0,0,1,2.06,1.4l.41.38-4,4.22-1-.93,2.89-3a2.93,2.93,0,0,0-1.56-.74,1.53,1.53,0,0,0-1.29.51,1.87,1.87,0,0,0-.57,1.52,2.74,2.74,0,0,0,.93,1.61l.8.75a2.26,2.26,0,0,0,1.58.72,2.12,2.12,0,0,0,1.52-.77,2.63,2.63,0,0,0,.55-.88,2.93,2.93,0,0,0,.2-1.06l1.57,0a4.64,4.64,0,0,1-.29,1.7,4.18,4.18,0,0,1-.86,1.39Z"/><path class="cls-3" d="M106.23,108.43l-.9.27a3,3,0,0,1-1.81,0,4.41,4.41,0,0,1-1.73-1.14l-1-1a4.22,4.22,0,0,1-1.08-1.74,3,3,0,0,1,0-1.79,4.34,4.34,0,0,1,1.13-1.73,4.88,4.88,0,0,1,1-.77,3.81,3.81,0,0,1,1.09-.41,3,3,0,0,1,1.08,0l-.1,1.64a2.53,2.53,0,0,0-1.06.14,2.33,2.33,0,0,0-.88.56,2,2,0,0,0-.7,1.45,2.08,2.08,0,0,0,.69,1.48l1,1a2.13,2.13,0,0,0,1.48.75,2,2,0,0,0,1.48-.67,2.27,2.27,0,0,0,.57-.89,2.44,2.44,0,0,0,.12-1.08h1.7a3,3,0,0,1,0,1.08,4.1,4.1,0,0,1-.44,1.08,4.84,4.84,0,0,1-.79,1Z"/><path class="cls-3" d="M111.3,102.93a3,3,0,0,1-1.77-.11,4.6,4.6,0,0,1-1.69-1.2l-1-1a4.39,4.39,0,0,1-1.06-1.76,2.83,2.83,0,0,1,0-1.75A3.9,3.9,0,0,1,107,95.45a4,4,0,0,1,1.7-1,3,3,0,0,1,1.76.11,4.36,4.36,0,0,1,1.67,1.18l1,1a4.56,4.56,0,0,1,1.07,1.76,2.93,2.93,0,0,1,0,1.76,3.87,3.87,0,0,1-1.1,1.63A4,4,0,0,1,111.3,102.93Zm1.23-3.51a2.3,2.3,0,0,0-.71-1.47l-1-1a2.24,2.24,0,0,0-1.41-.8,1.73,1.73,0,0,0-1.38.53,1.69,1.69,0,0,0-.63,1.34,2.26,2.26,0,0,0,.7,1.47l1,1a2.3,2.3,0,0,0,1.42.81,1.7,1.7,0,0,0,1.38-.53A1.72,1.72,0,0,0,112.53,99.42Z"/><path class="cls-3" d="M111.55,91.4l1.28-1.11,5.68,6.47-1.27,1.12Zm6.17-.9a2,2,0,0,0-1.28-.74,1.7,1.7,0,0,0-1.33.5,1.74,1.74,0,0,0-.67,1.17,1.62,1.62,0,0,0,.47,1.23l-1.22-1.13a3,3,0,0,1,0-1.59,2.47,2.47,0,0,1,.79-1.26,2.66,2.66,0,0,1,2.23-.74A3.92,3.92,0,0,1,119,89.38l3.45,3.93-1.27,1.12Z"/><path class="cls-3" d="M126.19,90.33l-.61.31a5.08,5.08,0,0,1-1.25.45,4.73,4.73,0,0,1-1.3.11l0-1.59a6.2,6.2,0,0,0,1.58-.27,3.9,3.9,0,0,0,1.22-.67,2.9,2.9,0,0,0,1-1.2,1.05,1.05,0,0,0-.21-1,.74.74,0,0,0-.61-.3,1.5,1.5,0,0,0-.7.22c-.24.13-.56.35-1,.63l-.11.09-.11.08-.06,0,0,0a6.64,6.64,0,0,1-1.25.71,2,2,0,0,1-1.17.11,2.2,2.2,0,0,1-1.19-.84,2.9,2.9,0,0,1-.69-1.41,2.32,2.32,0,0,1,.28-1.41A4.85,4.85,0,0,1,121.16,83a5.9,5.9,0,0,1,1.07-.72,5.26,5.26,0,0,1,1.13-.46,6.1,6.1,0,0,1,1.22-.21v1.6a6.1,6.1,0,0,0-1.37.34,4.07,4.07,0,0,0-1.08.62,2.4,2.4,0,0,0-.81,1,1,1,0,0,0,.23,1,.63.63,0,0,0,.53.25,1.5,1.5,0,0,0,.62-.22c.22-.13.51-.33.88-.6l.09-.06.09-.07,0,0,0,0a7.46,7.46,0,0,1,1.34-.8,2.07,2.07,0,0,1,1.28-.13,2.51,2.51,0,0,1,1.33.93,2.79,2.79,0,0,1,.68,1.44,2.45,2.45,0,0,1-.34,1.47,5.46,5.46,0,0,1-1.36,1.52Z"/><path class="cls-3" d="M131.34,85.28a2.62,2.62,0,0,1-1.44-1l-5.51-7,1.33-1,5.52,7a.83.83,0,0,0,.4.3.41.41,0,0,0,.39-.09l.64-.51,1,1.26-.77.61A1.9,1.9,0,0,1,131.34,85.28Zm-6.09-5.48,3-2.41,1,1.19-3,2.42Z"/><path class="cls-3" d="M130.2,75.9l1.34-1,5.22,6.86-1.35,1Zm4.3-1.23a1.94,1.94,0,0,0-.71.37,1.68,1.68,0,0,0-.73,1.11,1.7,1.7,0,0,0,.4,1.25l-1.15-1.22a3.2,3.2,0,0,1,.1-1.58,2.39,2.39,0,0,1,.85-1.18,3,3,0,0,1,1-.51,2.29,2.29,0,0,1,1-.11l0,1.86A1.39,1.39,0,0,0,134.5,74.67Z"/><path class="cls-3" d="M140.54,74.7a2,2,0,0,0,1.19.87,1.74,1.74,0,0,0,1.34-.36,1.83,1.83,0,0,0,.79-1.11,1.69,1.69,0,0,0-.37-1.29l1.15,1.4a2.42,2.42,0,0,1-1,2.58,2.7,2.7,0,0,1-2.33.54,3.89,3.89,0,0,1-2.14-1.64l-3.06-4.25,1.37-1Zm-.22-6.3,1.36-1,5,7-1.37,1Z"/><path class="cls-3" d="M150.76,71.78l-.94.11a3,3,0,0,1-1.77-.34,4.31,4.31,0,0,1-1.5-1.43l-.8-1.18A4.16,4.16,0,0,1,145,67a2.91,2.91,0,0,1,.34-1.76,4.34,4.34,0,0,1,1.42-1.49,4.72,4.72,0,0,1,1.14-.58A3.93,3.93,0,0,1,149,63a3,3,0,0,1,1.08.17l-.4,1.6a2.47,2.47,0,0,0-2,.34,2,2,0,0,0-1,1.3,2.08,2.08,0,0,0,.42,1.58l.8,1.18a2.19,2.19,0,0,0,1.32,1,2,2,0,0,0,1.58-.39,2.41,2.41,0,0,0,.71-.78,2.48,2.48,0,0,0,.32-1l1.67.29a3,3,0,0,1-.24,1,3.56,3.56,0,0,1-.63,1,4.57,4.57,0,0,1-1,.84Z"/><path class="cls-3" d="M156.05,67.46a2.57,2.57,0,0,1-1.33-1.17l-4.83-7.45,1.42-.92,4.84,7.47a.82.82,0,0,0,.36.34.42.42,0,0,0,.4-.06l.69-.44.87,1.35-.82.53A1.89,1.89,0,0,1,156.05,67.46Zm-5.55-6,3.26-2.12.83,1.29-3.26,2.11Z"/><path class="cls-3" d="M154,55.1l1.43-.9.9,1.43-1.43.9ZM155.8,58l1.44-.9,4.57,7.3-1.43.9Z"/><path class="cls-3" d="M165,62.11a2.89,2.89,0,0,1-1.7-.48,4.41,4.41,0,0,1-1.4-1.52l-.72-1.21a4.34,4.34,0,0,1-.67-1.93,2.85,2.85,0,0,1,.39-1.72,4.42,4.42,0,0,1,3.29-2,3,3,0,0,1,1.7.47,4.45,4.45,0,0,1,1.39,1.51l.73,1.22a4.42,4.42,0,0,1,.67,1.94,2.85,2.85,0,0,1-.39,1.72,4.42,4.42,0,0,1-3.29,2Zm1.94-3.17a2.29,2.29,0,0,0-.38-1.59l-.74-1.22A2.27,2.27,0,0,0,164.58,55a2,2,0,0,0-2.36,1.41A2.28,2.28,0,0,0,162.6,58l.73,1.23a2.33,2.33,0,0,0,1.22,1.09,1.73,1.73,0,0,0,1.47-.23A1.75,1.75,0,0,0,166.91,58.94Z"/><path class="cls-3" d="M167.63,50.89l1.48-.83,4.21,7.53-1.48.82Zm6.23.41a2,2,0,0,0-1.11-1,2.06,2.06,0,0,0-2.3,1.22,1.67,1.67,0,0,0,.21,1.31l-1-1.37A3.09,3.09,0,0,1,170,49.9a2.51,2.51,0,0,1,1-1.06,2.67,2.67,0,0,1,2.34-.26,3.9,3.9,0,0,1,1.94,1.89L177.88,55l-1.48.83Z"/><path class="cls-3" d="M178.69,44.84l1.51-.77,5.51,10.79-1.51.77Zm6,6.32a2.29,2.29,0,0,1-1.28-.57l-.72-1.66a2,2,0,0,0,.61.75,1.42,1.42,0,0,0,.79.27,1.92,1.92,0,0,0,.91-.23,1.67,1.67,0,0,0,.92-1,2.09,2.09,0,0,0-.24-1.5l-.85-1.66a2.18,2.18,0,0,0-1.08-1.1,1.61,1.61,0,0,0-1.39.13,1.84,1.84,0,0,0-.73.59,1.27,1.27,0,0,0-.25.78,2.07,2.07,0,0,0,.24.92l-.91-1.4a3,3,0,0,1,.38-1.5,2.55,2.55,0,0,1,1.07-1,2.87,2.87,0,0,1,1.58-.34,2.59,2.59,0,0,1,1.43.61,4.75,4.75,0,0,1,1.16,1.54l.86,1.67a4.61,4.61,0,0,1,.54,1.83,2.57,2.57,0,0,1-.37,1.53,3,3,0,0,1-1.25,1.1A2.53,2.53,0,0,1,184.68,51.16Z"/><path class="cls-3" d="M193,47.48l-1,0a3,3,0,0,1-1.73-.63,4.52,4.52,0,0,1-1.3-1.7l-.42-.88a5.15,5.15,0,0,1-.55-2.16,3.08,3.08,0,0,1,.53-1.77A3.82,3.82,0,0,1,190.1,39a3.06,3.06,0,0,1,1.89-.3,3.24,3.24,0,0,1,1.72.9,6.62,6.62,0,0,1,1.42,2l.24.51-5.25,2.5-.58-1.23,3.79-1.81a2.86,2.86,0,0,0-1.19-1.24,1.52,1.52,0,0,0-1.39,0,1.8,1.8,0,0,0-1.07,1.21,2.7,2.7,0,0,0,.29,1.84l.47,1a2.26,2.26,0,0,0,1.21,1.24,2.18,2.18,0,0,0,1.69-.17,2.81,2.81,0,0,0,.84-.63,3.18,3.18,0,0,0,.57-.91l1.48.53a4.78,4.78,0,0,1-.89,1.47,4.09,4.09,0,0,1-1.3,1Z"/><path class="cls-3" d="M195.48,36.66,197,36l3.5,7.87-1.55.69Zm4.48-.21a2.12,2.12,0,0,0-.78.19,1.55,1.55,0,0,0-.87,2.22l-.83-1.45a3.22,3.22,0,0,1,.45-1.51,2.5,2.5,0,0,1,1.1-1,3,3,0,0,1,1.05-.27,2.35,2.35,0,0,1,1,.11l-.4,1.82A1.33,1.33,0,0,0,200,36.45Z"/><path class="cls-3" d="M200.87,30.53l1.55-.66.66,1.56-1.55.66Zm1.34,3.18,1.56-.66L207.13,41l-1.56.66Z"/><path class="cls-3" d="M210.61,39.2a3,3,0,0,1-1.6-.74,4.5,4.5,0,0,1-1.14-1.73l-.52-1.31a4.43,4.43,0,0,1-.36-2,2.82,2.82,0,0,1,.66-1.63,4,4,0,0,1,1.62-1.12,3.93,3.93,0,0,1,1.94-.31,2.94,2.94,0,0,1,1.6.73,4.23,4.23,0,0,1,1.13,1.71l.53,1.32a4.4,4.4,0,0,1,.36,2,2.84,2.84,0,0,1-.66,1.63,3.81,3.81,0,0,1-1.61,1.12A4,4,0,0,1,210.61,39.2ZM213,36.37a2.31,2.31,0,0,0-.13-1.63l-.53-1.32a2.28,2.28,0,0,0-1-1.27,1.78,1.78,0,0,0-1.48,0,1.75,1.75,0,0,0-1.08,1,2.31,2.31,0,0,0,.13,1.63l.53,1.32a2.29,2.29,0,0,0,1,1.27,1.73,1.73,0,0,0,1.48,0A1.71,1.71,0,0,0,213,36.37Z"/><path class="cls-3" d="M218.93,36a2.6,2.6,0,0,1-1.37-.77,4.74,4.74,0,0,1-1-1.66l-.65-1.78a4.76,4.76,0,0,1-.34-1.9,2.66,2.66,0,0,1,.52-1.47,2.91,2.91,0,0,1,1.33-.93,2.57,2.57,0,0,1,1.45-.1,2.91,2.91,0,0,1,1.35.69l.44,1.72a2,2,0,0,0-.51-.82,1.38,1.38,0,0,0-.75-.35,2,2,0,0,0-.93.12,1.66,1.66,0,0,0-1,.94,2.19,2.19,0,0,0,.08,1.54l.64,1.76a2.07,2.07,0,0,0,.94,1.2,1.67,1.67,0,0,0,1.39,0,1.81,1.81,0,0,0,.79-.51,1.37,1.37,0,0,0,.33-.77,2.14,2.14,0,0,0-.14-1l.73,1.67a2.36,2.36,0,0,1-.42,1.29,2.28,2.28,0,0,1-1.2.9A3,3,0,0,1,218.93,36Zm-.52-12.38L220,23l4.16,11.33-1.59.59Z"/><path class="cls-3" d="M231.5,32l-.94-.16a3.06,3.06,0,0,1-1.64-.85,4.54,4.54,0,0,1-1.07-1.86l-.3-.92a5.21,5.21,0,0,1-.27-2.21,3,3,0,0,1,.75-1.69,3.77,3.77,0,0,1,1.72-1.06,3.17,3.17,0,0,1,1.92-.06,3.41,3.41,0,0,1,1.59,1.12,6.56,6.56,0,0,1,1.14,2.21l.18.53-5.53,1.8-.42-1.29,4-1.3a2.8,2.8,0,0,0-1-1.39,1.53,1.53,0,0,0-1.38-.17A1.84,1.84,0,0,0,229,25.76a2.72,2.72,0,0,0,.05,1.86l.34,1a2.21,2.21,0,0,0,1.05,1.39,2.15,2.15,0,0,0,1.7.05,2.83,2.83,0,0,0,.91-.51,3.26,3.26,0,0,0,.68-.84l1.4.72a4.87,4.87,0,0,1-1.07,1.35,4.31,4.31,0,0,1-1.42.81Z"/><path class="cls-3" d="M234.73,21.79l4.13-1.24.41,1.38-4.12,1.25Zm.54-1.38a2.42,2.42,0,0,1,0-1.79,2.11,2.11,0,0,1,1.39-1l1.19-.36.47,1.55-1.16.35a.39.39,0,0,0-.3.28.76.76,0,0,0,0,.49l2.83,9.38-1.63.49Z"/><path class="cls-3" d="M240,20.22l4.14-1.17.4,1.39-4.15,1.17Zm.56-1.37a2.4,2.4,0,0,1,0-1.79,2.1,2.1,0,0,1,1.4-1l1.2-.34.44,1.54-1.16.34a.41.41,0,0,0-.31.27.91.91,0,0,0,0,.49l2.68,9.43-1.63.46Z"/><path class="cls-3" d="M250.15,26.48l-.93-.22a3,3,0,0,1-1.58-1,4.58,4.58,0,0,1-1-1.91l-.24-.94a5.07,5.07,0,0,1-.14-2.22,3.05,3.05,0,0,1,.85-1.65,3.86,3.86,0,0,1,1.78-.95,3.13,3.13,0,0,1,1.92.05,3.38,3.38,0,0,1,1.52,1.22,6.71,6.71,0,0,1,1,2.27l.14.54-5.62,1.47-.35-1.32,4.07-1.06a3,3,0,0,0-.94-1.45,1.54,1.54,0,0,0-1.37-.24,1.85,1.85,0,0,0-1.28,1A2.76,2.76,0,0,0,248,22l.28,1.06a2.24,2.24,0,0,0,1,1.45,2.18,2.18,0,0,0,1.69.15,2.66,2.66,0,0,0,.94-.46,2.89,2.89,0,0,0,.73-.79l1.36.8a4.87,4.87,0,0,1-1.15,1.28,4.22,4.22,0,0,1-1.47.73Z"/><path class="cls-3" d="M258.87,24.31l-.91-.24a3,3,0,0,1-1.53-1,4.35,4.35,0,0,1-.89-1.87l-.32-1.38a4.2,4.2,0,0,1,0-2.05,2.93,2.93,0,0,1,1-1.52,4.14,4.14,0,0,1,1.86-.88,4.32,4.32,0,0,1,1.27-.13,3.5,3.5,0,0,1,1.14.21,2.84,2.84,0,0,1,.94.55l-.94,1.34a2.52,2.52,0,0,0-1-.42,2.28,2.28,0,0,0-1,0,2,2,0,0,0-1.36.88,2.13,2.13,0,0,0-.17,1.62l.32,1.38a2.17,2.17,0,0,0,.88,1.42,2.06,2.06,0,0,0,1.61.2,2.49,2.49,0,0,0,.95-.47,2.59,2.59,0,0,0,.67-.86l1.45.87a3,3,0,0,1-.61.9,3.63,3.63,0,0,1-.93.69A5,5,0,0,1,260,24Z"/><path class="cls-3" d="M262.37,14.55l3.81-.8.31,1.49-3.8.8Zm3,7.62a2.59,2.59,0,0,1-.82-1.57l-1.83-8.69,1.65-.35,1.84,8.71a.74.74,0,0,0,.22.45.43.43,0,0,0,.39.09l.8-.17.33,1.58-1,.2A1.91,1.91,0,0,1,265.38,22.17Z"/><path class="cls-3" d="M270.78,12.83l3.82-.7.28,1.5-3.82.71Zm2.82,7.7a2.6,2.6,0,0,1-.79-1.59l-1.61-8.73,1.67-.31,1.61,8.75a.86.86,0,0,0,.21.46.44.44,0,0,0,.39.1l.8-.15.29,1.58-1,.18A1.88,1.88,0,0,1,273.6,20.53Z"/><path class="cls-3" d="M276.48,8.28,278.15,8l1.92,11.92-1.67.27Zm6.25,5.93a2,2,0,0,0-.69-1.32,2.07,2.07,0,0,0-2.59.35,1.59,1.59,0,0,0-.25,1.28l-.44-1.61a3.07,3.07,0,0,1,.84-1.34,2.66,2.66,0,0,1,1.34-.64,2.71,2.71,0,0,1,2.29.56,4,4,0,0,1,1.17,2.44l.83,5.17-1.67.27Z"/><path class="cls-3" d="M290,18.55l-.89-.33a3,3,0,0,1-1.46-1.13,4.61,4.61,0,0,1-.71-2l-.13-1a5,5,0,0,1,.14-2.22,3.11,3.11,0,0,1,1-1.53,3.91,3.91,0,0,1,1.88-.72,3.07,3.07,0,0,1,1.9.29,3.32,3.32,0,0,1,1.36,1.39,6.67,6.67,0,0,1,.73,2.38l.07.56L288.2,15,288,13.66l4.16-.55a2.86,2.86,0,0,0-.75-1.55,1.51,1.51,0,0,0-1.32-.42,1.86,1.86,0,0,0-1.4.82,2.75,2.75,0,0,0-.29,1.84l.15,1.09a2.24,2.24,0,0,0,.77,1.55,2.17,2.17,0,0,0,1.67.36,2.85,2.85,0,0,0,1.8-1l1.25,1a4.67,4.67,0,0,1-1.3,1.13,4.26,4.26,0,0,1-1.54.55Z"/><path class="cls-3" d="M301.86,17.16,301,16.8a3,3,0,0,1-1.42-1.19,4.51,4.51,0,0,1-.64-2l-.09-1a5,5,0,0,1,.21-2.21,3,3,0,0,1,1.1-1.49,3.79,3.79,0,0,1,1.91-.66,3.09,3.09,0,0,1,1.88.36A3.37,3.37,0,0,1,305.25,10a6.68,6.68,0,0,1,.63,2.4l.06.56-5.79.56L300,12.2l4.18-.4a2.83,2.83,0,0,0-.7-1.58,1.51,1.51,0,0,0-1.3-.46,1.85,1.85,0,0,0-1.43.77,2.73,2.73,0,0,0-.35,1.83l.11,1.09a2.17,2.17,0,0,0,.72,1.58,2.19,2.19,0,0,0,1.65.42,2.78,2.78,0,0,0,1-.31,3,3,0,0,0,.85-.66l1.21,1a4.66,4.66,0,0,1-1.34,1.08,4.11,4.11,0,0,1-1.56.49Z"/><path class="cls-3" d="M310.83,16.39,310,16a3,3,0,0,1-1.37-1.18,4.4,4.4,0,0,1-.58-2l-.1-1.42a4.29,4.29,0,0,1,.3-2A3,3,0,0,1,309.4,8a4.27,4.27,0,0,1,2-.57,4.81,4.81,0,0,1,1.27.07,3.77,3.77,0,0,1,1.1.39,2.82,2.82,0,0,1,.84.69L313.45,9.8a2.53,2.53,0,0,0-.9-.58,2.58,2.58,0,0,0-1-.15,2.08,2.08,0,0,0-1.48.66,2.12,2.12,0,0,0-.43,1.57l.1,1.42a2.18,2.18,0,0,0,.65,1.53,2,2,0,0,0,1.56.45,2.29,2.29,0,0,0,1-.31,2.42,2.42,0,0,0,.79-.74l1.3,1.09a2.92,2.92,0,0,1-.74.79,3.71,3.71,0,0,1-1,.53,4.55,4.55,0,0,1-1.25.25Z"/><path class="cls-3" d="M318.26,15.49A3,3,0,0,1,317,14.27a4.65,4.65,0,0,1-.51-2l-.06-1.41a4.57,4.57,0,0,1,.33-2,2.92,2.92,0,0,1,1.16-1.32,4.43,4.43,0,0,1,3.83-.17A2.91,2.91,0,0,1,323,8.55a4.33,4.33,0,0,1,.51,2l.06,1.42a4.28,4.28,0,0,1-.33,2,2.93,2.93,0,0,1-1.15,1.33,4,4,0,0,1-1.9.53A3.9,3.9,0,0,1,318.26,15.49Zm3.21-1.87a2.32,2.32,0,0,0,.41-1.58l-.06-1.43a2.26,2.26,0,0,0-.56-1.53,2,2,0,0,0-2.74.13,2.24,2.24,0,0,0-.42,1.57l.07,1.43a2.28,2.28,0,0,0,.55,1.53,2,2,0,0,0,2.75-.12Z"/><path class="cls-3" d="M325.92,6.88l1.69,0,.15,8.61-1.69,0Zm5.28,3.3a2,2,0,0,0-.49-1.4,2,2,0,0,0-2.61,0,1.65,1.65,0,0,0-.44,1.24l-.2-1.66a3.17,3.17,0,0,1,1-1.22,2.57,2.57,0,0,1,1.42-.45,2.69,2.69,0,0,1,2.18.88,3.92,3.92,0,0,1,.82,2.58l.09,5.23-1.7,0Z"/><path class="cls-3" d="M336.85,15.06a2.83,2.83,0,0,1-1.2-1.29,4.38,4.38,0,0,1-.4-2V10.33a4.4,4.4,0,0,1,.44-2,2.81,2.81,0,0,1,1.23-1.25,3.84,3.84,0,0,1,1.92-.42,4,4,0,0,1,1.91.45A3,3,0,0,1,342,8.4a4.52,4.52,0,0,1,.4,2l0,1.43a4.39,4.39,0,0,1-.44,2,2.88,2.88,0,0,1-1.23,1.26,4.39,4.39,0,0,1-3.83,0Zm3.31-1.69a2.36,2.36,0,0,0,.5-1.55V10.39a2.26,2.26,0,0,0-.47-1.56,2,2,0,0,0-2.74,0,2.29,2.29,0,0,0-.51,1.55v1.43a2.26,2.26,0,0,0,.47,1.56,2,2,0,0,0,2.75,0Z"/><path class="cls-3" d="M345,6.85l1.69.07-.38,8.61-1.69-.07Zm5,3.62A2,2,0,0,0,349.64,9a1.6,1.6,0,0,0-1.25-.55,1.73,1.73,0,0,0-1.3.38,1.64,1.64,0,0,0-.51,1.21l-.1-1.66a3.08,3.08,0,0,1,1.1-1.16A2.58,2.58,0,0,1,349,6.9a2.83,2.83,0,0,1,1.52.48,2.54,2.54,0,0,1,.92,1.24,4.77,4.77,0,0,1,.25,1.92l-.23,5.22-1.69-.07Zm5.14.23a1.94,1.94,0,0,0-.41-1.43,1.74,1.74,0,0,0-1.3-.56,1.55,1.55,0,0,0-1.24.43,1.94,1.94,0,0,0-.49,1.34l-.27-1.67a3.3,3.3,0,0,1,1.13-1.28,2.5,2.5,0,0,1,1.5-.4,3,3,0,0,1,1.57.48,2.66,2.66,0,0,1,1,1.24,4.77,4.77,0,0,1,.25,1.92L356.62,16l-1.69-.07Z"/><path class="cls-3" d="M358.59,7.52l1.72.13,2.06,7.67-1.07,1.76Zm7.61.59-4.48,10.31a2.44,2.44,0,0,1-.6.9,1.89,1.89,0,0,1-.83.43,4.26,4.26,0,0,1-1.17.06l-.34,0,.13-1.62.34,0a1.27,1.27,0,0,0,.76-.13,1.57,1.57,0,0,0,.54-.61L364.48,8Z"/><path class="cls-3" d="M368.76,12.33a4.52,4.52,0,0,1,.59-1.1c.22-.3.5-.63.84-1s.45-.51.6-.7a2.94,2.94,0,0,0,.38-.62,2.3,2.3,0,0,0,.2-.76h0A1.58,1.58,0,0,0,371.12,7a1.36,1.36,0,0,0-1-.5,1.25,1.25,0,0,0-1.09.39,2.26,2.26,0,0,0-.51,1.35h0l-1.71-.17h0a4.4,4.4,0,0,1,.6-1.82,2.76,2.76,0,0,1,1.18-1.07,3.23,3.23,0,0,1,1.67-.24,3.74,3.74,0,0,1,1.65.53,2.53,2.53,0,0,1,1,1.16,3.45,3.45,0,0,1,.2,1.7h0a3.52,3.52,0,0,1-.26,1,3.2,3.2,0,0,1-.45.78c-.17.22-.4.48-.69.79a10.21,10.21,0,0,0-.76.87,4.14,4.14,0,0,0-.53.94,4.69,4.69,0,0,0-.3,1.3l-1.69-.16A5.69,5.69,0,0,1,368.76,12.33Zm-.5,2.94,1.69.17-.17,1.69L368.09,17Z"/><path class="cls-4" d="M395.73,8.55l1.15.2.78,9.75,3.75-8.94,1.73.3-5,11.37-1.7-.3-.71-8.69L392,20.13l-1.7-.3-.79-12.4,1.73.31.45,9.69Z"/><path class="cls-4" d="M405,10.29l1.65.36-2.53,11.8-1.66-.36Zm3.67,7.8a2,2,0,0,0-.16-1.48,1.76,1.76,0,0,0-1.2-.77A1.84,1.84,0,0,0,406,16a1.61,1.61,0,0,0-.7,1.1l.18-1.66a3.14,3.14,0,0,1,1.26-.94,2.57,2.57,0,0,1,1.48-.11,2.66,2.66,0,0,1,1.93,1.36,3.89,3.89,0,0,1,.21,2.69l-1.1,5.12-1.65-.36Z"/><path class="cls-4" d="M412.13,23.67a2.49,2.49,0,0,1-.29-2.13,2.46,2.46,0,0,1,1.16-1.7,3.22,3.22,0,0,1,2.27-.1l2.38.58-.21,1.35-2.48-.6a1.43,1.43,0,0,0-1,.05,1.15,1.15,0,0,0-.53.79,1.14,1.14,0,0,0,.19,1.05,2.32,2.32,0,0,0,1.22.62,3.84,3.84,0,0,0,1.45.14.69.69,0,0,0,.62-.51l-.12,1.22a1.89,1.89,0,0,1-.67.42,2.66,2.66,0,0,1-.82.15,4.35,4.35,0,0,1-1-.12A3.73,3.73,0,0,1,412.13,23.67ZM417.66,20a1.8,1.8,0,0,0-.12-1.39,1.76,1.76,0,0,0-1.14-.76,3.12,3.12,0,0,0-1-.08,2.93,2.93,0,0,0-1,.22l-1-1.12a3.21,3.21,0,0,1,1.47-.58,4.68,4.68,0,0,1,1.81.1,4.16,4.16,0,0,1,1.69.8,2.57,2.57,0,0,1,.87,1.34,3.47,3.47,0,0,1,0,1.78l-1.32,5.38-1.56-.38Z"/><path class="cls-4" d="M421.18,26a2.66,2.66,0,0,1,0-1.78l2.3-8.58,1.64.44-2.3,8.6a.78.78,0,0,0,0,.5.44.44,0,0,0,.31.26l.79.21-.42,1.55-.95-.25A1.93,1.93,0,0,1,421.18,26Zm.76-8.17,3.76,1-.4,1.47-3.75-1Z"/><path class="cls-4" d="M429,28.1a2.49,2.49,0,0,1-.18-2.15A2.43,2.43,0,0,1,430,24.32a3.2,3.2,0,0,1,2.27,0l2.35.71-.28,1.33-2.45-.73a1.48,1.48,0,0,0-1,0,1.18,1.18,0,0,0-.57.77,1.09,1.09,0,0,0,.14,1.05,2.2,2.2,0,0,0,1.17.69,4,4,0,0,0,1.45.22.68.68,0,0,0,.64-.48l-.18,1.21a2,2,0,0,1-.69.38,2.49,2.49,0,0,1-.83.11,4.06,4.06,0,0,1-1-.17A3.68,3.68,0,0,1,429,28.1Zm5.72-3.43a1.83,1.83,0,0,0-.05-1.39,1.74,1.74,0,0,0-1.1-.82,3.37,3.37,0,0,0-1-.13,3,3,0,0,0-1,.16l-.94-1.16a3.15,3.15,0,0,1,1.5-.51,4.75,4.75,0,0,1,1.8.2,4.2,4.2,0,0,1,1.65.89,2.62,2.62,0,0,1,.79,1.38,3.45,3.45,0,0,1-.12,1.78l-1.59,5.3-1.54-.47Z"/><path class="cls-4" d="M439.69,22.94l1.6.53-2.68,8.18L437,31.12Zm3.46,2.85a2.09,2.09,0,0,0-.71-.38,1.69,1.69,0,0,0-1.33,0,1.65,1.65,0,0,0-.8,1l.35-1.63A3.1,3.1,0,0,1,442,24a2.42,2.42,0,0,1,1.46,0,3.34,3.34,0,0,1,1,.49,2.5,2.5,0,0,1,.64.74l-1.52,1.08A1.41,1.41,0,0,0,443.15,25.79Z"/><path class="cls-4" d="M445.82,34.23l-.65-.71a2.94,2.94,0,0,1-.77-1.67,4.53,4.53,0,0,1,.28-2.12l.33-.92a5,5,0,0,1,1.13-1.91,3.05,3.05,0,0,1,1.63-.88,3.76,3.76,0,0,1,2,.21,3.13,3.13,0,0,1,1.55,1.12,3.4,3.4,0,0,1,.58,1.87,6.76,6.76,0,0,1-.44,2.44l-.19.53-5.48-1.95.46-1.28,4,1.41a2.84,2.84,0,0,0,0-1.73,1.51,1.51,0,0,0-1-1,1.82,1.82,0,0,0-1.62.09,2.68,2.68,0,0,0-1.09,1.51l-.37,1a2.23,2.23,0,0,0,0,1.74,2.15,2.15,0,0,0,1.32,1.07,2.5,2.5,0,0,0,1,.15,3.09,3.09,0,0,0,1-.24l.68,1.42a4.66,4.66,0,0,1-1.67.41,4.11,4.11,0,0,1-1.62-.22Z"/><path class="cls-4" d="M456.61,38.12,455,37.5l4.39-11.24,1.58.62Z"/><path class="cls-4" d="M464,28l1.57.65-4.65,11.14-1.56-.66Zm-1.42,5.66,3.57,1.49a1.78,1.78,0,0,0,1,.13,1.68,1.68,0,0,0,.88-.42,2.59,2.59,0,0,0,.63-.92,2.47,2.47,0,0,0,.21-1.1,1.69,1.69,0,0,0-.31-.92,1.76,1.76,0,0,0-.79-.62l-3.56-1.48.62-1.49,3.51,1.46A3.85,3.85,0,0,1,469.85,31a3.19,3.19,0,0,1,.68,1.69,4.12,4.12,0,0,1-.33,2A3.92,3.92,0,0,1,469,36.26a3.18,3.18,0,0,1-1.68.7,3.83,3.83,0,0,1-1.93-.31l-3.51-1.46Z"/><path class="cls-4" d="M474,32.28l1.54.7-5,11-1.54-.7Zm-1.61,5.62,3.51,1.6a1.75,1.75,0,0,0,1.88-.23,2.68,2.68,0,0,0,.65-.9,2.36,2.36,0,0,0,.25-1.09,1.79,1.79,0,0,0-.28-.94,1.73,1.73,0,0,0-.77-.63l-3.51-1.6.67-1.47,3.46,1.58a3.84,3.84,0,0,1,1.54,1.21,3.23,3.23,0,0,1,.62,1.71,4.45,4.45,0,0,1-1.61,3.53,3.2,3.2,0,0,1-1.7.64,3.85,3.85,0,0,1-1.92-.37l-3.46-1.58Z"/><path class="cls-4" d="M483,50l-.55-.78a3,3,0,0,1-.56-1.76,4.44,4.44,0,0,1,.54-2.07l.44-.87a5.07,5.07,0,0,1,1.36-1.75,3,3,0,0,1,1.73-.67,3.78,3.78,0,0,1,2,.46,3.08,3.08,0,0,1,1.4,1.31,3.43,3.43,0,0,1,.34,1.92,6.75,6.75,0,0,1-.75,2.36l-.25.51-5.19-2.62.61-1.21,3.75,1.89a2.88,2.88,0,0,0,.26-1.71,1.55,1.55,0,0,0-.86-1.09,1.83,1.83,0,0,0-1.62-.11,2.74,2.74,0,0,0-1.27,1.36l-.49,1a2.22,2.22,0,0,0-.24,1.72,2.12,2.12,0,0,0,1.17,1.23,2.62,2.62,0,0,0,1,.28,3,3,0,0,0,1.07-.12l.49,1.5a4.78,4.78,0,0,1-1.71.2,4.11,4.11,0,0,1-1.58-.42Z"/><path class="cls-4" d="M493.13,45.34l1.48.82-4.15,7.55L489,52.89ZM496,50.8a2.06,2.06,0,0,0,.29-1.45,1.59,1.59,0,0,0-.87-1.05,1.77,1.77,0,0,0-1.34-.24,1.66,1.66,0,0,0-1,.87l.65-1.54a3,3,0,0,1,1.49-.55,2.54,2.54,0,0,1,1.45.32,2.88,2.88,0,0,1,1.16,1.1,2.57,2.57,0,0,1,.27,1.52,4.84,4.84,0,0,1-.62,1.83L495,56.19l-1.48-.82Zm4.51,2.48a2,2,0,0,0,.26-1.46,1.74,1.74,0,0,0-.92-1.08,1.57,1.57,0,0,0-1.3-.17,2,2,0,0,0-1,1l.5-1.62a3.3,3.3,0,0,1,1.58-.64,2.5,2.5,0,0,1,1.52.3,2.9,2.9,0,0,1,1.19,1.13,2.61,2.61,0,0,1,.3,1.53,4.81,4.81,0,0,1-.61,1.83l-2.53,4.58L498,57.86Z"/><path class="cls-4" d="M506,52.56l1.45.87-6.23,10.39L499.79,63ZM503.83,61a2.27,2.27,0,0,1-.19-1.39l1-1.48a2,2,0,0,0-.31.91,1.42,1.42,0,0,0,.18.81,2,2,0,0,0,.68.65,1.67,1.67,0,0,0,1.38.23,2.12,2.12,0,0,0,1.14-1l1-1.6a2.2,2.2,0,0,0,.36-1.5,1.65,1.65,0,0,0-.85-1.11,1.91,1.91,0,0,0-.89-.31,1.4,1.4,0,0,0-.79.21,2,2,0,0,0-.65.69l.71-1.51a3,3,0,0,1,1.47-.48,2.58,2.58,0,0,1,1.42.37,3,3,0,0,1,1.13,1.16,2.56,2.56,0,0,1,.23,1.54,4.65,4.65,0,0,1-.69,1.8l-1,1.61A4.61,4.61,0,0,1,507.91,62a2.58,2.58,0,0,1-1.48.5,3.11,3.11,0,0,1-1.6-.48A2.51,2.51,0,0,1,503.83,61Z"/><path class="cls-4" d="M512.07,63.75a.75.75,0,0,0-.14.48.44.44,0,0,0,.23.35l.67.43L512,66.37l-.85-.53a1.91,1.91,0,0,1-.94-1.3,2.52,2.52,0,0,1,.45-1.71l5.24-8.31,1.44.9Z"/><path class="cls-4" d="M514.87,67.81a2.86,2.86,0,0,1-.3-1.74,4.39,4.39,0,0,1,.77-1.92l.77-1.17a4.41,4.41,0,0,1,1.45-1.44,2.91,2.91,0,0,1,1.72-.39,4,4,0,0,1,1.84.69,4.05,4.05,0,0,1,1.36,1.42,2.89,2.89,0,0,1,.31,1.74,4.39,4.39,0,0,1-.75,1.9l-.79,1.19a4.47,4.47,0,0,1-1.46,1.45,2.9,2.9,0,0,1-1.72.39,4.4,4.4,0,0,1-3.2-2.12Zm3.7.38a2.31,2.31,0,0,0,1.27-1l.78-1.2a2.3,2.3,0,0,0,.46-1.56,2,2,0,0,0-2.3-1.51,2.22,2.22,0,0,0-1.26,1l-.79,1.19a2.33,2.33,0,0,0-.45,1.57,1.71,1.71,0,0,0,.84,1.23A1.74,1.74,0,0,0,518.57,68.19Z"/><path class="cls-4" d="M531.5,69.12l-9.11,6.6a2.37,2.37,0,0,1-1,.47,1.88,1.88,0,0,1-.94,0,3.92,3.92,0,0,1-1-.55l-.27-.19.93-1.33.28.19a1.4,1.4,0,0,0,.72.28,1.59,1.59,0,0,0,.78-.26l8.19-6.15Zm-6.25-4.38,1.41,1-2.12,7.66-1.82,1Z"/><path class="cls-4" d="M529.37,78.41l-.42-.87a3,3,0,0,1-.25-1.82,4.59,4.59,0,0,1,.89-2l.58-.78a4.87,4.87,0,0,1,1.64-1.5,3,3,0,0,1,1.82-.37,3.85,3.85,0,0,1,1.85.78,3.09,3.09,0,0,1,1.16,1.53,3.31,3.31,0,0,1,0,1.95,6.63,6.63,0,0,1-1.13,2.21l-.34.45-4.67-3.46.81-1.09L534.7,76a2.89,2.89,0,0,0,.54-1.64,1.52,1.52,0,0,0-.67-1.22,1.83,1.83,0,0,0-1.57-.38,2.68,2.68,0,0,0-1.48,1.12l-.66.88a2.3,2.3,0,0,0-.52,1.66,2.15,2.15,0,0,0,.95,1.41,2.54,2.54,0,0,0,.94.44,2.81,2.81,0,0,0,1.08.07l.23,1.56a4.51,4.51,0,0,1-1.72-.09,4.15,4.15,0,0,1-1.49-.68Z"/><path class="cls-4" d="M536.55,83.85l-.39-.88a2.94,2.94,0,0,1-.2-1.83,4.51,4.51,0,0,1,.94-1.92l.6-.77A5.11,5.11,0,0,1,539.19,77a3,3,0,0,1,1.82-.32,4,4,0,0,1,1.84.84A3.11,3.11,0,0,1,544,79.08a3.34,3.34,0,0,1,0,2,6.67,6.67,0,0,1-1.2,2.17l-.35.45-4.57-3.59.84-1.07L542,81.58a2.87,2.87,0,0,0,.58-1.62,1.5,1.5,0,0,0-.63-1.24,1.79,1.79,0,0,0-1.56-.42,2.71,2.71,0,0,0-1.52,1.08l-.67.86a2.25,2.25,0,0,0-.57,1.64,2.16,2.16,0,0,0,.9,1.44,2.86,2.86,0,0,0,.94.47,3.2,3.2,0,0,0,1.07.1l.19,1.56a4.73,4.73,0,0,1-1.72-.14,4,4,0,0,1-1.47-.72Z"/><path class="cls-4" d="M549,78.17l1.31,1.07-1.07,1.32-2.37.23Z"/><path class="cls-4" d="M545.42,91s-.13-.19-.41-.55a4.93,4.93,0,0,1-.67-1.15,4.87,4.87,0,0,1-.33-1.26l1.56-.3a5.71,5.71,0,0,0,.55,1.51,3.57,3.57,0,0,0,.87,1.08,2.92,2.92,0,0,0,1.35.73,1,1,0,0,0,1-.39.75.75,0,0,0,.19-.65,1.57,1.57,0,0,0-.34-.65c-.18-.21-.45-.49-.8-.84l-.1-.09-.1-.11,0,0,0,0a6.55,6.55,0,0,1-.93-1.1,1.94,1.94,0,0,1-.3-1.13,2.13,2.13,0,0,1,.61-1.32,2.83,2.83,0,0,1,1.26-.93,2.3,2.3,0,0,1,1.44,0,4.91,4.91,0,0,1,1.61,1,6.5,6.5,0,0,1,.9.92,6.59,6.59,0,0,1,.65,1,5.82,5.82,0,0,1,.42,1.17l-1.58.28a5.46,5.46,0,0,0-.57-1.29,4,4,0,0,0-.8-1,2.38,2.38,0,0,0-1.18-.61,1,1,0,0,0-.9.4.6.6,0,0,0-.15.56,1.5,1.5,0,0,0,.32.57c.17.19.42.45.75.76l.07.08.08.07,0,0s0,0,0,0a7.37,7.37,0,0,1,1,1.17,2.14,2.14,0,0,1,.35,1.24,2.5,2.5,0,0,1-.68,1.47,2.71,2.71,0,0,1-1.3.92,2.39,2.39,0,0,1-1.51-.07A5.73,5.73,0,0,1,546,91.52Z"/><path class="cls-4" d="M558.35,90.63l1.26,1.14-8.15,9-1.25-1.14Zm-3.79,7.84a2.18,2.18,0,0,1,.08-1.4l1.3-1.26a2,2,0,0,0-.49.84,1.38,1.38,0,0,0,0,.83,1.88,1.88,0,0,0,.54.77,1.67,1.67,0,0,0,1.31.49,2.08,2.08,0,0,0,1.31-.76l1.25-1.38a2.12,2.12,0,0,0,.65-1.4,1.69,1.69,0,0,0-.61-1.26,2,2,0,0,0-.82-.46,1.29,1.29,0,0,0-.82,0,2.12,2.12,0,0,0-.77.55l1-1.34a3,3,0,0,1,1.54-.18,2.48,2.48,0,0,1,1.32.64,2.9,2.9,0,0,1,.88,1.35,2.61,2.61,0,0,1-.07,1.56,4.76,4.76,0,0,1-1,1.63l-1.26,1.39a4.64,4.64,0,0,1-1.52,1.16,2.57,2.57,0,0,1-1.56.19,3,3,0,0,1-1.47-.78A2.56,2.56,0,0,1,554.56,98.47Z"/><path class="cls-4" d="M562.08,102.76a.72.72,0,0,0-.24.45.46.46,0,0,0,.17.38l.58.55-1.11,1.17-.72-.68a1.88,1.88,0,0,1-.68-1.46,2.49,2.49,0,0,1,.78-1.59l6.75-7.14,1.23,1.16Z"/><path class="cls-4" d="M563.42,106.38a2.49,2.49,0,0,1,.85-2,2.43,2.43,0,0,1,1.87-.85,3.28,3.28,0,0,1,2,1.08l1.74,1.72L569,107.4l-1.81-1.8a1.43,1.43,0,0,0-.92-.48,1.11,1.11,0,0,0-.86.41,1.13,1.13,0,0,0-.38,1,2.28,2.28,0,0,0,.72,1.16,3.92,3.92,0,0,0,1.18.87.68.68,0,0,0,.79-.13l-.73,1a1.91,1.91,0,0,1-.79,0,2.51,2.51,0,0,1-.78-.3,4.37,4.37,0,0,1-.77-.6A3.71,3.71,0,0,1,563.42,106.38Zm6.66-.34a1.83,1.83,0,0,0,.61-1.25,1.71,1.71,0,0,0-.59-1.24,3.17,3.17,0,0,0-.82-.59,3.05,3.05,0,0,0-.94-.31l-.28-1.47a3.22,3.22,0,0,1,1.56.26,4.55,4.55,0,0,1,1.5,1,4.15,4.15,0,0,1,1,1.55,2.65,2.65,0,0,1,.05,1.6,3.56,3.56,0,0,1-.93,1.51l-3.9,3.94-1.14-1.14Z"/><path class="cls-4" d="M575.37,106.89l1.17,1.23-6.23,5.94-1.17-1.22Zm1.15,6.13a1.93,1.93,0,0,0,.7-1.32,1.72,1.72,0,0,0-.56-1.3,1.78,1.78,0,0,0-1.2-.63,1.68,1.68,0,0,0-1.21.53l1.08-1.27a3,3,0,0,1,1.59-.08,2.48,2.48,0,0,1,1.29.74,2.65,2.65,0,0,1,.84,2.2,4,4,0,0,1-1.35,2.35l-3.78,3.61-1.17-1.23Z"/><path class="cls-4" d="M577,121.45l-.34-.6a5.39,5.39,0,0,1-.5-1.23,5.07,5.07,0,0,1-.16-1.29l1.59-.08a5.59,5.59,0,0,0,.34,1.56,3.62,3.62,0,0,0,.71,1.19,2.89,2.89,0,0,0,1.24.91,1,1,0,0,0,1-.25.72.72,0,0,0,.28-.62,1.49,1.49,0,0,0-.25-.69c-.15-.24-.37-.55-.67-.94l-.09-.11-.09-.11,0,0,0-.06a6.5,6.5,0,0,1-.77-1.22,1.91,1.91,0,0,1-.15-1.16,2.24,2.24,0,0,1,.78-1.23,3,3,0,0,1,1.38-.74,2.31,2.31,0,0,1,1.42.22,5,5,0,0,1,1.47,1.17,6.56,6.56,0,0,1,.76,1,6.15,6.15,0,0,1,.51,1.11,6.06,6.06,0,0,1,.26,1.21l-1.61.07a5.41,5.41,0,0,0-.39-1.36,3.74,3.74,0,0,0-.66-1,2.28,2.28,0,0,0-1.09-.76,1,1,0,0,0-.94.27.58.58,0,0,0-.23.53,1.61,1.61,0,0,0,.24.61,10.22,10.22,0,0,0,.64.86l.06.08.07.09,0,0a.08.08,0,0,1,0,0,7.65,7.65,0,0,1,.86,1.31,2,2,0,0,1,.17,1.27,2.41,2.41,0,0,1-.87,1.37,2.75,2.75,0,0,1-1.41.73,2.36,2.36,0,0,1-1.48-.28,5.62,5.62,0,0,1-1.58-1.28Z"/><path class="cls-4" d="M590.94,122.26a2.41,2.41,0,0,1,1.65-.7,2.09,2.09,0,0,1,1.48.87l.8.95-1.23,1-.78-.93a.43.43,0,0,0-.38-.16.93.93,0,0,0-.44.21l-7.48,6.33-1.1-1.29Zm-1.49.06,2.78,3.29-1.1.93-2.78-3.29Z"/><path class="cls-4" d="M587.68,133.13a2.87,2.87,0,0,1,.23-1.75,4.48,4.48,0,0,1,1.31-1.6l1.1-.88a4.24,4.24,0,0,1,1.82-.94,2.9,2.9,0,0,1,1.75.15,3.88,3.88,0,0,1,1.54,1.22,4,4,0,0,1,.87,1.76,2.94,2.94,0,0,1-.22,1.75,4.48,4.48,0,0,1-1.3,1.58l-1.11.9a4.45,4.45,0,0,1-1.83.94,2.94,2.94,0,0,1-1.76-.15,3.92,3.92,0,0,1-1.54-1.21A3.83,3.83,0,0,1,587.68,133.13Zm3.41,1.48a2.34,2.34,0,0,0,1.51-.61l1.12-.89a2.27,2.27,0,0,0,.9-1.36,1.75,1.75,0,0,0-.44-1.41,1.72,1.72,0,0,0-1.29-.72,2.21,2.21,0,0,0-1.51.59l-1.11.9a2.27,2.27,0,0,0-.91,1.36,2,2,0,0,0,1.73,2.14Z"/><path class="cls-4" d="M599.15,134.2l1,1.35-6.85,5.23-1-1.34Zm1.24,4.31a1.91,1.91,0,0,0-.36-.71,1.54,1.54,0,0,0-2.37-.33l1.22-1.15a3.21,3.21,0,0,1,1.58.09,2.45,2.45,0,0,1,1.18.85,3.31,3.31,0,0,1,.52,1,2.46,2.46,0,0,1,.1,1l-1.85,0A1.39,1.39,0,0,0,600.39,138.51Z"/><path class="cls-4" d="M599.19,147.76a2.64,2.64,0,0,1,1.11-1.39l7.21-5.18,1,1.37-7.23,5.19a.8.8,0,0,0-.32.39.43.43,0,0,0,.07.39l.48.66-1.31.94-.57-.79A1.91,1.91,0,0,1,599.19,147.76Zm5.77-5.83,2.26,3.15L606,146l-2.26-3.15Z"/><path class="cls-4" d="M611.49,145.12l1,1.4-10,6.8-1-1.4Zm-2.71,8.18a2,2,0,0,0,.9-1.18,1.74,1.74,0,0,0-.34-1.38,1.78,1.78,0,0,0-1.08-.82,1.59,1.59,0,0,0-1.26.32l1.27-1.08a3,3,0,0,1,1.57.19,2.63,2.63,0,0,1,1.15.94,2.68,2.68,0,0,1,.46,2.31,3.87,3.87,0,0,1-1.71,2.1l-4.32,2.94-.95-1.4Z"/><path class="cls-4" d="M607.94,161.75s0-.32-.08-.95a3.07,3.07,0,0,1,.41-1.8,4.58,4.58,0,0,1,1.53-1.5l.82-.52a5.17,5.17,0,0,1,2.07-.82,3.08,3.08,0,0,1,1.83.31,3.76,3.76,0,0,1,1.45,1.39,3.1,3.1,0,0,1,.54,1.85,3.35,3.35,0,0,1-.69,1.82,6.85,6.85,0,0,1-1.84,1.66l-.48.3-3.13-4.9,1.15-.73,2.26,3.54a2.89,2.89,0,0,0,1.09-1.34,1.55,1.55,0,0,0-.18-1.38,1.84,1.84,0,0,0-1.34-.91,2.73,2.73,0,0,0-1.79.51l-.92.59a2.27,2.27,0,0,0-1.08,1.36,2.15,2.15,0,0,0,.38,1.66,2.7,2.7,0,0,0,.72.75,3,3,0,0,0,1,.45l-.34,1.54a4.64,4.64,0,0,1-1.57-.7,4.12,4.12,0,0,1-1.15-1.17Z"/><path class="cls-4" d="M621.66,165.07a2.44,2.44,0,0,1,1.74-.42,2.1,2.1,0,0,1,1.32,1.11l.63,1.07-1.38.82-.62-1a.41.41,0,0,0-.34-.22.78.78,0,0,0-.47.13l-8.44,5-.86-1.46Zm-1.47-.18,2.19,3.7-1.24.74-2.2-3.71Z"/><path class="cls-4" d="M619.59,174.24a2,2,0,0,0-1,1.09,1.68,1.68,0,0,0,.21,1.37,1.79,1.79,0,0,0,1,.91,1.66,1.66,0,0,0,1.32-.22l-1.52,1a2.55,2.55,0,0,1-1.35-.23,2.51,2.51,0,0,1-1.1-1.07,2.77,2.77,0,0,1-.28-2.38,4,4,0,0,1,1.88-1.94l4.57-2.56.83,1.48Zm6.28.5.82,1.47-7.51,4.21-.83-1.47Z"/><path class="cls-4" d="M621.16,183a2.6,2.6,0,0,1,1.28-1.23l7.86-4.15.79,1.5-7.87,4.15a.78.78,0,0,0-.37.34.41.41,0,0,0,0,.4l.38.72-1.43.75-.45-.86A1.87,1.87,0,0,1,621.16,183Zm6.5-5,1.82,3.43-1.35.71-1.82-3.43Z"/><path class="cls-4" d="M626.67,187.47a2,2,0,0,0-1,1,1.73,1.73,0,0,0,.14,1.39,1.79,1.79,0,0,0,1,1,1.58,1.58,0,0,0,1.32-.15l-1.56.91a2.46,2.46,0,0,1-1.34-.3,2.38,2.38,0,0,1-1-1.12,2.69,2.69,0,0,1-.16-2.38,3.89,3.89,0,0,1,2-1.85l4.69-2.33.75,1.52Zm6.25.81.75,1.5L626,193.62l-.75-1.51Z"/><path class="cls-4" d="M634.84,192.25l.71,1.54-7.82,3.62-.71-1.54Zm.28,4.48a2,2,0,0,0-.21-.78,1.53,1.53,0,0,0-2.23-.83l1.43-.86a3.22,3.22,0,0,1,1.52.43,2.52,2.52,0,0,1,1,1.09,3.26,3.26,0,0,1,.29,1,2.42,2.42,0,0,1-.1,1l-1.82-.38A1.43,1.43,0,0,0,635.12,196.73Z"/><path class="cls-4" d="M630.75,204.44l.08-1a3,3,0,0,1,.7-1.71,4.5,4.5,0,0,1,1.75-1.23l.89-.39a5.23,5.23,0,0,1,2.17-.47,3.06,3.06,0,0,1,1.76.6,3.83,3.83,0,0,1,1.21,1.61,3.12,3.12,0,0,1,.23,1.9,3.33,3.33,0,0,1-1,1.69,6.44,6.44,0,0,1-2.09,1.34l-.52.23-2.3-5.34,1.26-.54,1.66,3.86a3,3,0,0,0,1.29-1.15,1.57,1.57,0,0,0,0-1.39,1.87,1.87,0,0,0-1.17-1.12,2.73,2.73,0,0,0-1.85.23l-1,.43a2.23,2.23,0,0,0-1.28,1.17,2.14,2.14,0,0,0,.11,1.7,2.56,2.56,0,0,0,.59.85,2.8,2.8,0,0,0,.89.6l-.58,1.46a4.6,4.6,0,0,1-1.44-.94,3.94,3.94,0,0,1-.94-1.34Z"/><path class="cls-4" d="M635.48,211l.62,1.57-1.57.63-.63-1.58Zm2.83-.92a5.19,5.19,0,0,1,1.26,0c.36.06.79.15,1.28.28s.66.17.89.21a2.93,2.93,0,0,0,.73.05,2.43,2.43,0,0,0,.77-.17h0a1.6,1.6,0,0,0,.91-.76,1.38,1.38,0,0,0,0-1.11,1.21,1.21,0,0,0-.85-.78,2.3,2.3,0,0,0-1.44.16h0l-.64-1.6h0a4.41,4.41,0,0,1,1.89-.31,2.66,2.66,0,0,1,1.49.56,3.13,3.13,0,0,1,1,1.36,3.76,3.76,0,0,1,.29,1.71,2.52,2.52,0,0,1-.59,1.39,3.61,3.61,0,0,1-1.42,1h0a3.63,3.63,0,0,1-1,.25,3.73,3.73,0,0,1-.9,0c-.27,0-.61-.14-1-.25a11,11,0,0,0-1.12-.27,4.2,4.2,0,0,0-1.08,0,4.6,4.6,0,0,0-1.3.33l-.63-1.57A5.69,5.69,0,0,1,638.31,210.09Z"/><path class="cls-5" d="M654,232.4l.34,1.11L646,238.62l9.67-.7.51,1.69-12.4.68-.5-1.66,7.42-4.57-8.74.22-.5-1.65,10.69-6.32.51,1.68-8.43,4.79Z"/><path class="cls-5" d="M656.67,241.49l.42,1.64-11.68,3-.42-1.64Zm-5.32,6.78a2,2,0,0,0,1.25-.81,1.77,1.77,0,0,0,.15-1.41,1.81,1.81,0,0,0-.74-1.14,1.63,1.63,0,0,0-1.3-.13l1.57-.58a3,3,0,0,1,1.4.71,2.53,2.53,0,0,1,.77,1.27,2.7,2.7,0,0,1-.34,2.33,4,4,0,0,1-2.32,1.4l-5.06,1.31-.43-1.64Z"/><path class="cls-5" d="M647.91,253.88a2.49,2.49,0,0,1,1.78-1.21,2.46,2.46,0,0,1,2,.28,3.21,3.21,0,0,1,1.1,2l.54,2.39-1.3.41-.56-2.49a1.46,1.46,0,0,0-.51-.9,1.15,1.15,0,0,0-1-.12,1.1,1.1,0,0,0-.85.64,2.27,2.27,0,0,0,0,1.36,3.82,3.82,0,0,0,.53,1.36.69.69,0,0,0,.73.33l-1.14.43a1.88,1.88,0,0,1-.68-.41,2.39,2.39,0,0,1-.5-.66,4.4,4.4,0,0,1-.32-.93A3.64,3.64,0,0,1,647.91,253.88Zm5.8,3.29a1.83,1.83,0,0,0,1.19-.73,1.73,1.73,0,0,0,.17-1.35,3.26,3.26,0,0,0-.38-1,2.91,2.91,0,0,0-.62-.76l.55-1.39a3.18,3.18,0,0,1,1.18,1,4.86,4.86,0,0,1,.72,1.67,4.09,4.09,0,0,1,0,1.87,2.63,2.63,0,0,1-.81,1.38,3.58,3.58,0,0,1-1.6.77l-5.4,1.22-.35-1.57Z"/><path class="cls-5" d="M649.91,263a2.61,2.61,0,0,1,1.57-.81l8.71-1.76.34,1.66-8.73,1.76a.87.87,0,0,0-.45.22.41.41,0,0,0-.09.39l.16.8-1.58.32-.19-1A1.9,1.9,0,0,1,649.91,263Zm7.65-2.94.77,3.81-1.5.3-.77-3.81Z"/><path class="cls-5" d="M651.42,270.88a2.48,2.48,0,0,1,1.85-1.11,2.41,2.41,0,0,1,2,.4,3.21,3.21,0,0,1,1,2.05l.4,2.41-1.33.34-.42-2.52a1.41,1.41,0,0,0-.45-.93,1.14,1.14,0,0,0-.94-.18,1.13,1.13,0,0,0-.89.59,2.24,2.24,0,0,0-.09,1.36,3.65,3.65,0,0,0,.44,1.39.69.69,0,0,0,.72.37l-1.17.37a2.15,2.15,0,0,1-.66-.45,2.34,2.34,0,0,1-.45-.7,3.87,3.87,0,0,1-.27-.94A3.58,3.58,0,0,1,651.42,270.88ZM657,274.5a1.81,1.81,0,0,0,1.23-.66,1.7,1.7,0,0,0,.25-1.34,3.27,3.27,0,0,0-.9-1.77l.64-1.35a3.14,3.14,0,0,1,1.11,1.12,4.79,4.79,0,0,1,.62,1.7,4.11,4.11,0,0,1-.08,1.87,2.57,2.57,0,0,1-.89,1.33,3.56,3.56,0,0,1-1.64.68l-5.46.9-.26-1.59Z"/><path class="cls-5" d="M660.79,278.28,661,280l-8.54,1.18-.23-1.67Zm-1,4.36a2.11,2.11,0,0,0,0-.8,1.54,1.54,0,0,0-1.89-1.45l1.62-.4a3.25,3.25,0,0,1,1.33.85,2.44,2.44,0,0,1,.61,1.33,3,3,0,0,1,0,1.08,2.53,2.53,0,0,1-.38.89l-1.64-.89A1.42,1.42,0,0,0,659.75,282.64Z"/><path class="cls-5" d="M653.33,288.72s.11-.3.35-.89a2.91,2.91,0,0,1,1.16-1.43,4.52,4.52,0,0,1,2-.68l1-.1a5,5,0,0,1,2.22.18,3.07,3.07,0,0,1,1.5,1.08,3.73,3.73,0,0,1,.69,1.9,3.12,3.12,0,0,1-.33,1.89A3.4,3.4,0,0,1,660.5,292a6.88,6.88,0,0,1-2.39.67l-.56.06L656.9,287l1.36-.15.46,4.17a2.91,2.91,0,0,0,1.57-.72,1.5,1.5,0,0,0,.44-1.32,1.84,1.84,0,0,0-.79-1.41,2.69,2.69,0,0,0-1.83-.32l-1.09.12a2.23,2.23,0,0,0-1.57.74,2.14,2.14,0,0,0-.39,1.66,2.61,2.61,0,0,0,.32,1,2.73,2.73,0,0,0,.68.83l-1,1.23a4.78,4.78,0,0,1-1.1-1.32,4.09,4.09,0,0,1-.51-1.56Z"/><path class="cls-5" d="M655,298.92a2.53,2.53,0,0,1,1.66-.61l8.85-.69.14,1.69-8.88.69a.77.77,0,0,0-.47.16.38.38,0,0,0-.14.37l.06.82-1.61.12-.07-1A1.9,1.9,0,0,1,655,298.92Zm7.95-2,.3,3.87-1.53.12-.3-3.87Z"/><path class="cls-5" d="M666.85,303.07l.09,1.69-12.05.63-.09-1.69Zm-6.56,5.58a2,2,0,0,0,1.38-.55,1.72,1.72,0,0,0,.43-1.35,1.82,1.82,0,0,0-.5-1.26,1.58,1.58,0,0,0-1.24-.39l1.65-.26a3.1,3.1,0,0,1,1.23,1,2.51,2.51,0,0,1,.5,1.4,2.65,2.65,0,0,1-.81,2.21,3.89,3.89,0,0,1-2.55.91l-5.22.27-.09-1.69Z"/><path class="cls-5" d="M655.18,315.44l.43-.86a3,3,0,0,1,1.28-1.32,4.57,4.57,0,0,1,2.09-.49l1,0a5.08,5.08,0,0,1,2.19.38,3.1,3.1,0,0,1,1.41,1.21,3.87,3.87,0,0,1,.51,2,3,3,0,0,1-.5,1.85,3.33,3.33,0,0,1-1.53,1.2,6.55,6.55,0,0,1-2.44.46H659L658.9,314l1.36,0,.09,4.2a2.9,2.9,0,0,0,1.63-.58,1.5,1.5,0,0,0,.55-1.27,1.8,1.8,0,0,0-.66-1.47,2.69,2.69,0,0,0-1.79-.49l-1.1,0a2.28,2.28,0,0,0-1.63.6,2.19,2.19,0,0,0-.54,1.62,2.8,2.8,0,0,0,.23,1,3,3,0,0,0,.6.89l-1.09,1.14a5,5,0,0,1-1-1.41,4.19,4.19,0,0,1-.37-1.6Z"/><path class="cls-5" d="M664,325.15l0,1.7-12.11-.22,0-1.69Zm-8.39,2.31a2.26,2.26,0,0,1,1.1-.86l1.8.15a2,2,0,0,0-.95.18,1.38,1.38,0,0,0-.6.57,1.83,1.83,0,0,0-.23.91,1.64,1.64,0,0,0,.49,1.31,2.07,2.07,0,0,0,1.43.49l1.87,0a2.18,2.18,0,0,0,1.48-.43,1.68,1.68,0,0,0,.54-1.29,1.87,1.87,0,0,0-.18-.92,1.32,1.32,0,0,0-.58-.59,2,2,0,0,0-.92-.22l1.66-.14a2.91,2.91,0,0,1,1.15,1,2.46,2.46,0,0,1,.39,1.41,2.89,2.89,0,0,1-.44,1.56,2.59,2.59,0,0,1-1.22,1,4.77,4.77,0,0,1-1.9.3l-1.88,0a4.57,4.57,0,0,1-1.87-.38,2.59,2.59,0,0,1-1.17-1,3,3,0,0,1-.38-1.62A2.51,2.51,0,0,1,655.62,327.46Z"/><path class="cls-5" d="M655.45,335.56a2.82,2.82,0,0,1,1.33-1.15,4.41,4.41,0,0,1,2.05-.32l1.4.06a4.46,4.46,0,0,1,2,.52,2.91,2.91,0,0,1,1.21,1.27,4.46,4.46,0,0,1-.19,3.84,2.88,2.88,0,0,1-1.33,1.15,4.39,4.39,0,0,1-2,.32l-1.42-.07a4.52,4.52,0,0,1-2-.51,2.9,2.9,0,0,1-1.22-1.28,4.35,4.35,0,0,1,.19-3.83Zm1.56,3.37a2.31,2.31,0,0,0,1.54.56l1.42.07a2.27,2.27,0,0,0,1.58-.41,2,2,0,0,0,.13-2.75,2.26,2.26,0,0,0-1.53-.55l-1.42-.07a2.26,2.26,0,0,0-1.59.41,2,2,0,0,0-.13,2.74Z"/><path class="cls-5" d="M663.31,344l-.14,1.69-12.08-1,.13-1.68Zm-8.53,1.79a2.27,2.27,0,0,1,1.16-.79l1.79.26a2.08,2.08,0,0,0-1,.12,1.38,1.38,0,0,0-.64.53,1.88,1.88,0,0,0-.28.9,1.65,1.65,0,0,0,.41,1.33,2,2,0,0,0,1.39.58l1.87.14a2.13,2.13,0,0,0,1.5-.34,1.64,1.64,0,0,0,.62-1.26,2,2,0,0,0-.12-.93,1.47,1.47,0,0,0-.54-.62,2.07,2.07,0,0,0-.91-.27l1.67,0a3,3,0,0,1,1.08,1.11,2.52,2.52,0,0,1,.3,1.43,2.89,2.89,0,0,1-.53,1.53,2.55,2.55,0,0,1-1.28.89,4.65,4.65,0,0,1-1.92.19l-1.87-.15a4.48,4.48,0,0,1-1.84-.49,2.59,2.59,0,0,1-1.11-1.11,3,3,0,0,1-.28-1.64A2.57,2.57,0,0,1,654.78,345.79Z"/><path class="cls-5" d="M662,358.33,661.8,360l-8.57-.94.19-1.67Zm-4.82-4.05a2,2,0,0,0-1.44.31,1.66,1.66,0,0,0-.64,1.24,1.75,1.75,0,0,0,.3,1.32,1.65,1.65,0,0,0,1.2.59l-1.81-.08a2.58,2.58,0,0,1-1-1,2.49,2.49,0,0,1-.27-1.51,2.73,2.73,0,0,1,1.16-2.09,3.86,3.86,0,0,1,2.65-.49l5.21.57-.19,1.68Z"/><path class="cls-5" d="M654.88,363.53a.8.8,0,0,0-.5.07.52.52,0,0,0-.22.36l-.1.79-1.6-.21.13-1a1.91,1.91,0,0,1,.79-1.4,2.55,2.55,0,0,1,1.74-.3l9.75,1.31-.23,1.67Z"/><path class="cls-5" d="M656.9,371.94a1.8,1.8,0,0,0,1.37-.24,1.71,1.71,0,0,0,.67-1.19,3.49,3.49,0,0,0,0-1,2.88,2.88,0,0,0-.3-.94l1-1.09a3.22,3.22,0,0,1,.7,1.42,4.56,4.56,0,0,1,0,1.81,4,4,0,0,1-.66,1.75,2.58,2.58,0,0,1-1.26,1,3.53,3.53,0,0,1-1.77.13l-5.47-.86.25-1.59Zm-4.17-5.2a2.48,2.48,0,0,1,2.11-.46,2.43,2.43,0,0,1,1.78,1,3.18,3.18,0,0,1,.29,2.25l-.38,2.42-1.36-.09.4-2.53a1.45,1.45,0,0,0-.14-1,1.16,1.16,0,0,0-.84-.46,1.14,1.14,0,0,0-1,.28,2.24,2.24,0,0,0-.51,1.26,3.76,3.76,0,0,0,0,1.46.66.66,0,0,0,.56.57h-1.22a1.86,1.86,0,0,1-.48-.64,2.19,2.19,0,0,1-.22-.8,4.06,4.06,0,0,1,0-1A3.76,3.76,0,0,1,652.73,366.74Z"/><path class="cls-5" d="M651.22,375.93a2.64,2.64,0,0,1,1.77-.17l8.73,1.59-.3,1.67-8.75-1.6a.87.87,0,0,0-.5,0,.42.42,0,0,0-.24.33l-.14.8-1.59-.29.18-1A1.87,1.87,0,0,1,651.22,375.93Zm8.2.1-.7,3.82-1.5-.27.69-3.83Z"/><path class="cls-5" d="M658.26,382.24l-.33,1.66-8.45-1.69.33-1.66Zm3.38.67-.33,1.66-1.66-.33.33-1.66Z"/><path class="cls-5" d="M649,386.09a2.91,2.91,0,0,1,1.52-.91,4.54,4.54,0,0,1,2.07,0l1.37.31a4.48,4.48,0,0,1,1.87.84,2.89,2.89,0,0,1,1,1.46,4.45,4.45,0,0,1-.83,3.75,2.9,2.9,0,0,1-1.51.91,4.41,4.41,0,0,1-2,0l-1.4-.31a4.37,4.37,0,0,1-1.87-.85,2.91,2.91,0,0,1-1-1.46,4,4,0,0,1,0-2A3.85,3.85,0,0,1,649,386.09Zm1,3.58a2.35,2.35,0,0,0,1.42.82l1.39.31a2.3,2.3,0,0,0,1.63-.14A2,2,0,0,0,655,388a2.19,2.19,0,0,0-1.41-.81l-1.39-.31a2.31,2.31,0,0,0-1.63.13,1.74,1.74,0,0,0-.84,1.22A1.72,1.72,0,0,0,650,389.67Z"/><path class="cls-5" d="M650.72,400a2,2,0,0,0,1.48-.11,1.76,1.76,0,0,0,.82-1.17,1.8,1.8,0,0,0-.11-1.35,1.65,1.65,0,0,0-1.09-.74l1.65.24a3.09,3.09,0,0,1,.91,1.31,2.49,2.49,0,0,1,.06,1.48A2.68,2.68,0,0,1,653,401.5a3.93,3.93,0,0,1-2.7.1l-5.07-1.3.42-1.64Zm4.59-4.23-.42,1.64-8.35-2.13.42-1.64Z"/><path class="cls-5" d="M652.05,408l-.49,1.62L640,406.09l.48-1.62Zm-8.71,0a2.23,2.23,0,0,1,1.3-.53l1.69.63a1.91,1.91,0,0,0-1-.08,1.35,1.35,0,0,0-.74.38,1.86,1.86,0,0,0-.46.82,1.65,1.65,0,0,0,.11,1.39,2.11,2.11,0,0,0,1.25.85l1.79.54a2.18,2.18,0,0,0,1.54,0,1.63,1.63,0,0,0,.87-1.09,2,2,0,0,0,.08-.94,1.36,1.36,0,0,0-.4-.72,2.07,2.07,0,0,0-.83-.46l1.64.32a3,3,0,0,1,.83,1.31,2.51,2.51,0,0,1,0,1.46,2.84,2.84,0,0,1-.84,1.38,2.5,2.5,0,0,1-1.43.6,4.61,4.61,0,0,1-1.92-.22L645,413a4.56,4.56,0,0,1-1.69-.87,2.5,2.5,0,0,1-.85-1.32,3.06,3.06,0,0,1,.07-1.66A2.48,2.48,0,0,1,643.34,407.91Z"/><path class="cls-5" d="M649.29,417l-.53,1.6-8.18-2.7.53-1.61Zm-2.85,3.45a2,2,0,0,0,.38-.71,1.66,1.66,0,0,0,0-1.32,1.63,1.63,0,0,0-1-.81l1.63.36a3.1,3.1,0,0,1,.82,1.35,2.43,2.43,0,0,1,0,1.46,3.1,3.1,0,0,1-.49,1,2.46,2.46,0,0,1-.74.63l-1.07-1.52A1.41,1.41,0,0,0,646.44,420.4Z"/><path class="cls-5" d="M638.73,422.28a2.91,2.91,0,0,1,1.62-.71,4.53,4.53,0,0,1,2,.29l1.32.48a4.31,4.31,0,0,1,1.74,1.08,2.83,2.83,0,0,1,.78,1.57,3.78,3.78,0,0,1-.24,1.95,3.87,3.87,0,0,1-1.06,1.66,2.85,2.85,0,0,1-1.61.71,4.39,4.39,0,0,1-2-.29l-1.35-.48a4.5,4.5,0,0,1-1.75-1.08,2.86,2.86,0,0,1-.78-1.58,3.88,3.88,0,0,1,.23-1.95A4,4,0,0,1,638.73,422.28Zm.5,3.68a2.33,2.33,0,0,0,1.31,1l1.34.48a2.27,2.27,0,0,0,1.63.07,2,2,0,0,0,.93-2.58,2.28,2.28,0,0,0-1.3-1l-1.34-.48a2.33,2.33,0,0,0-1.63-.08,1.73,1.73,0,0,0-1,1.11A1.76,1.76,0,0,0,639.23,426Z"/><path class="cls-5" d="M634.38,427.73l-.34.88a.4.4,0,0,0,0,.4.81.81,0,0,0,.4.3l9.19,3.56-.61,1.57-9.17-3.55a2.43,2.43,0,0,1-1.38-1.1,1.86,1.86,0,0,1,0-1.6l.4-1Zm12.51,6.37-.63,1.61-1.57-.61.62-1.61Z"/><path class="cls-5" d="M633.1,435.78l.74-.61a3,3,0,0,1,1.71-.69,4.6,4.6,0,0,1,2.1.39l.9.37a5.16,5.16,0,0,1,1.85,1.23,3.06,3.06,0,0,1,.8,1.68,3.9,3.9,0,0,1-.31,2,3.17,3.17,0,0,1-1.2,1.49,3.33,3.33,0,0,1-1.89.49,7,7,0,0,1-2.42-.57l-.52-.22,2.22-5.36,1.26.52-1.61,3.88a2.94,2.94,0,0,0,1.73.12,1.52,1.52,0,0,0,1-.94,1.81,1.81,0,0,0,0-1.61,2.64,2.64,0,0,0-1.44-1.17l-1-.42a2.21,2.21,0,0,0-1.73-.11,2.11,2.11,0,0,0-1.14,1.26,2.69,2.69,0,0,0-.2,1,2.93,2.93,0,0,0,.19,1.06l-1.45.6a4.5,4.5,0,0,1-.33-1.69,4,4,0,0,1,.3-1.6Z"/><path class="cls-5" d="M629.55,444.07l.74-.58a3,3,0,0,1,1.69-.64,4.25,4.25,0,0,1,2,.43l1.29.58a4.24,4.24,0,0,1,1.65,1.22,3,3,0,0,1,.63,1.68,4.31,4.31,0,0,1-.43,2,4.66,4.66,0,0,1-.66,1.08,3.8,3.8,0,0,1-.87.79,2.9,2.9,0,0,1-1,.41l-.5-1.56a2.66,2.66,0,0,0,.93-.52,2.42,2.42,0,0,0,.62-.84,2.05,2.05,0,0,0,.13-1.61,2.17,2.17,0,0,0-1.19-1.13l-1.3-.58a2.15,2.15,0,0,0-1.66-.15,2,2,0,0,0-1.13,1.16,2.44,2.44,0,0,0-.2,1,2.49,2.49,0,0,0,.28,1.05l-1.58.63a3,3,0,0,1-.34-1,3.77,3.77,0,0,1,0-1.16,5,5,0,0,1,.37-1.21Z"/><path class="cls-5" d="M627.31,450.52a2.6,2.6,0,0,1,1.75.29l8,3.83-.73,1.53-8-3.84a.77.77,0,0,0-.49-.09.41.41,0,0,0-.31.25l-.35.74-1.46-.69.43-.89A1.86,1.86,0,0,1,627.31,450.52Zm7.88,2.24-1.67,3.5-1.38-.65,1.67-3.51Z"/><path class="cls-5" d="M632.45,458.43,631.7,460,624,456.11l.76-1.51Zm3.1,1.54-.76,1.52-1.52-.76.76-1.51Z"/><path class="cls-5" d="M622.5,459.73a2.85,2.85,0,0,1,1.71-.48,4.45,4.45,0,0,1,2,.57l1.24.65a4.35,4.35,0,0,1,1.58,1.31,2.88,2.88,0,0,1,.56,1.66,3.91,3.91,0,0,1-.51,1.9,4,4,0,0,1-1.28,1.5,2.9,2.9,0,0,1-1.69.48,4.32,4.32,0,0,1-2-.56l-1.26-.66a4.49,4.49,0,0,1-1.59-1.31,2.91,2.91,0,0,1-.56-1.67,4,4,0,0,1,.5-1.9A4,4,0,0,1,622.5,459.73Zm0,3.71a2.29,2.29,0,0,0,1.16,1.16l1.26.66a2.25,2.25,0,0,0,1.6.29,1.71,1.71,0,0,0,1.13-1,1.76,1.76,0,0,0,.15-1.47,2.28,2.28,0,0,0-1.15-1.15l-1.26-.66a2.34,2.34,0,0,0-1.61-.3,1.71,1.71,0,0,0-1.13,1A1.69,1.69,0,0,0,622.5,463.44Z"/><path class="cls-5" d="M620.53,473.59a2,2,0,0,0,1.47.28,1.72,1.72,0,0,0,1.08-.91,1.76,1.76,0,0,0,.25-1.33,1.66,1.66,0,0,0-.85-1l1.53.67a3.06,3.06,0,0,1,.53,1.5,2.48,2.48,0,0,1-.33,1.45,2.65,2.65,0,0,1-1.87,1.43,3.88,3.88,0,0,1-2.63-.6l-4.55-2.58L616,471Zm5.53-2.88-.83,1.47-7.5-4.24.83-1.48Z"/><path class="cls-5" d="M612.61,476.51l.47-.5a5.77,5.77,0,0,1,1-.83,4.77,4.77,0,0,1,1.2-.53l.54,1.5a5.47,5.47,0,0,0-1.4.77,3.8,3.8,0,0,0-.94,1,2.88,2.88,0,0,0-.51,1.45,1,1,0,0,0,.54.91.69.69,0,0,0,.67.09,1.5,1.5,0,0,0,.59-.44c.18-.21.42-.51.71-.91a.75.75,0,0,1,.07-.12l.09-.11,0-.06a.1.1,0,0,0,0-.05,6.33,6.33,0,0,1,1-1.09,1.91,1.91,0,0,1,1.07-.48,2.21,2.21,0,0,1,1.4.4,2.76,2.76,0,0,1,1.1,1.1,2.29,2.29,0,0,1,.21,1.43,5.23,5.23,0,0,1-.7,1.74,6.79,6.79,0,0,1-.78,1,5.39,5.39,0,0,1-.92.8,5.15,5.15,0,0,1-1.08.6l-.53-1.51a6,6,0,0,0,1.19-.77,4,4,0,0,0,.82-.94,2.45,2.45,0,0,0,.42-1.26,1,1,0,0,0-.54-.83.59.59,0,0,0-.57-.06,1.39,1.39,0,0,0-.52.41c-.16.19-.37.48-.64.86l-.06.08-.06.09,0,0,0,0a7.15,7.15,0,0,1-1,1.19,2.11,2.11,0,0,1-1.18.54,2.39,2.39,0,0,1-1.55-.44,2.74,2.74,0,0,1-1.11-1.14,2.4,2.4,0,0,1-.17-1.5,5.84,5.84,0,0,1,.78-1.88Z"/><path class="cls-5" d="M610.12,484l-.91,1.43-1.43-.92.92-1.42Zm2.4,1.78a4.9,4.9,0,0,1,.71,1,11.49,11.49,0,0,1,.52,1.21c.14.35.25.63.35.85a2.73,2.73,0,0,0,.38.62,2.42,2.42,0,0,0,.58.52h0a1.57,1.57,0,0,0,1.14.3,1.33,1.33,0,0,0,.9-.65,1.26,1.26,0,0,0,.15-1.15,2.38,2.38,0,0,0-1-1.07h0l.93-1.44h0a4.58,4.58,0,0,1,1.35,1.36,2.74,2.74,0,0,1,.42,1.54,3.15,3.15,0,0,1-.54,1.6,3.79,3.79,0,0,1-1.23,1.23,2.53,2.53,0,0,1-1.47.33,3.5,3.5,0,0,1-1.6-.59h0a3.53,3.53,0,0,1-.81-.7,3.47,3.47,0,0,1-.49-.76,9.64,9.64,0,0,1-.39-1,11.24,11.24,0,0,0-.43-1.07,4,4,0,0,0-.59-.9,5,5,0,0,0-1-.86l.91-1.43A5.78,5.78,0,0,1,612.52,485.75Z"/><path class="cls-6" d="M602.52,512.85l-1,1.35-9.61-7.29,1-1.35Zm4.14-5.46-1,1.35-9.62-7.3,1-1.35ZM601.78,505l-4,5.34-1.29-1,4-5.34Z"/><path class="cls-6" d="M589.56,510.31a2.93,2.93,0,0,1,1.76-.14,4.54,4.54,0,0,1,1.84,1l1.09.88a4.67,4.67,0,0,1,1.29,1.59,2.87,2.87,0,0,1,.22,1.75,4.41,4.41,0,0,1-2.42,3,2.9,2.9,0,0,1-1.75.15,4.48,4.48,0,0,1-1.82-.94l-1.11-.9a4.59,4.59,0,0,1-1.3-1.59,3,3,0,0,1-.22-1.75,4,4,0,0,1,.87-1.77A3.87,3.87,0,0,1,589.56,510.31Zm-.74,3.64a2.31,2.31,0,0,0,.91,1.36l1.11.9a2.24,2.24,0,0,0,1.51.61,2,2,0,0,0,1.73-2.14,2.26,2.26,0,0,0-.9-1.35l-1.11-.9a2.29,2.29,0,0,0-1.51-.61,2,2,0,0,0-1.74,2.13Z"/><path class="cls-6" d="M591.51,521.1l-1.17,1.33-5.64-2.89,3.23,5.66-.78.89-6-2.42,3.64,5.2-1.17,1.33-4.75-7.67.84-1,5.87,2.33-3.11-5.5.85-1Z"/><path class="cls-6" d="M580.68,533.35l-1.23,1.27L574,531.45l2.94,5.82-.82.85-5.92-2.72,3.37,5.37L572.3,542l-4.36-7.89.89-.92,5.74,2.62-2.83-5.65.89-.92Z"/><path class="cls-6" d="M570.86,543.39l-1.21,1.19-6-6.15,1.21-1.18Zm2.42,2.47L572.07,547l-1.18-1.21,1.2-1.18Z"/><path class="cls-6" d="M562.1,543a.74.74,0,0,0-.43-.26.48.48,0,0,0-.4.15l-.58.54-1.1-1.17.72-.68a1.9,1.9,0,0,1,1.5-.59,2.5,2.5,0,0,1,1.54.86L570.1,549l-1.23,1.16Z"/><path class="cls-6" d="M558.54,546.32a.77.77,0,0,0-.43-.26.46.46,0,0,0-.4.14l-.58.54-1.1-1.18.73-.68a1.89,1.89,0,0,1,1.5-.58,2.49,2.49,0,0,1,1.53.88l6.68,7.21-1.24,1.15Z"/><path class="cls-6" d="M552.35,549.64a2.56,2.56,0,0,1,1.5,1l5.87,6.66-1.27,1.12-5.88-6.68a.8.8,0,0,0-.42-.28.42.42,0,0,0-.38.11l-.62.54-1.06-1.21.73-.64A1.89,1.89,0,0,1,552.35,549.64Zm6.38,5.15-2.92,2.57-1-1.15,2.92-2.57Z"/><path class="cls-6" d="M547.79,559.74a2,2,0,0,0,1.27.77,1.72,1.72,0,0,0,1.33-.47,1.79,1.79,0,0,0,.71-1.16,1.61,1.61,0,0,0-.44-1.22l1.2,1.16a3.07,3.07,0,0,1,0,1.57,2.51,2.51,0,0,1-.82,1.24,2.66,2.66,0,0,1-2.25.69,3.89,3.89,0,0,1-2.25-1.49l-3.37-4,1.3-1.09Zm8.41,1.87-1.3,1.09-7.77-9.24,1.3-1.09Z"/><path class="cls-6" d="M539.3,559.75l.94-.17a3,3,0,0,1,1.83.23,4.58,4.58,0,0,1,1.65,1.36l.6.77a5,5,0,0,1,1,2,3.13,3.13,0,0,1-.11,1.85,3.79,3.79,0,0,1-1.25,1.59,3,3,0,0,1-1.77.72,3.3,3.3,0,0,1-1.89-.5,6.8,6.8,0,0,1-1.84-1.66l-.35-.45,4.56-3.61.84,1.07-3.29,2.61a2.92,2.92,0,0,0,1.45,1,1.54,1.54,0,0,0,1.35-.33,1.82,1.82,0,0,0,.77-1.42,2.72,2.72,0,0,0-.7-1.72l-.68-.86a2.25,2.25,0,0,0-1.46-.94,2.17,2.17,0,0,0-1.61.55,2.62,2.62,0,0,0-.67.8,2.76,2.76,0,0,0-.35,1l-1.56-.18a4.81,4.81,0,0,1,.53-1.63,4.06,4.06,0,0,1,1.05-1.26Z"/><path class="cls-6" d="M531.54,566.58a2.56,2.56,0,0,1,1.4,1.08l5.3,7.13-1.36,1-5.31-7.15a.74.74,0,0,0-.39-.31.41.41,0,0,0-.39.08l-.65.48-1-1.29L530,567A1.88,1.88,0,0,1,531.54,566.58Zm5.92,5.66-3.12,2.32-.91-1.23,3.12-2.31Z"/><path class="cls-6" d="M532.35,576,531,577l-5-7,1.38-1Zm-4.34,1.1a2.14,2.14,0,0,0,.72-.34,1.72,1.72,0,0,0,.76-1.09,1.68,1.68,0,0,0-.35-1.26l1.1,1.25a3.14,3.14,0,0,1-.14,1.57,2.43,2.43,0,0,1-.89,1.16,3,3,0,0,1-1,.48,2.45,2.45,0,0,1-1,.08l0-1.86A1.5,1.5,0,0,0,528,577.11Z"/><path class="cls-6" d="M520.54,580.38a1.8,1.8,0,0,0,1.11.83,1.68,1.68,0,0,0,1.32-.33,3.08,3.08,0,0,0,.75-.69,2.73,2.73,0,0,0,.48-.86h1.5a3.25,3.25,0,0,1-.56,1.49,4.73,4.73,0,0,1-1.29,1.27,4.13,4.13,0,0,1-1.73.71,2.67,2.67,0,0,1-1.58-.26,3.61,3.61,0,0,1-1.3-1.21l-3.09-4.59,1.33-.9Zm1-6.6a2.48,2.48,0,0,1,1.78,1.22,2.45,2.45,0,0,1,.47,2,3.2,3.2,0,0,1-1.45,1.76l-2,1.37-.86-1.07,2.12-1.43a1.43,1.43,0,0,0,.66-.8,1.18,1.18,0,0,0-.23-.93,1.13,1.13,0,0,0-.91-.56,2.27,2.27,0,0,0-1.27.48,3.87,3.87,0,0,0-1.09,1,.71.71,0,0,0,0,.81l-.82-.91a1.84,1.84,0,0,1,.14-.78,2.25,2.25,0,0,1,.44-.71,4.58,4.58,0,0,1,3.08-1.42Z"/><path class="cls-6" d="M512.44,585.33a2,2,0,0,0,1.16.94A1.75,1.75,0,0,0,515,586a1.78,1.78,0,0,0,.85-1.06,1.62,1.62,0,0,0-.28-1.29l1,1.31a3.1,3.1,0,0,1-.24,1.57,2.46,2.46,0,0,1-1,1.12,2.7,2.7,0,0,1-2.33.39,3.85,3.85,0,0,1-2-1.78l-2.8-4.41,1.43-.91Zm6.24.06-1.43.91L512.63,579l1.43-.91Z"/><path class="cls-6" d="M504.05,584.19l.65-.21a5,5,0,0,1,1.3-.25,4.82,4.82,0,0,1,1.31.09l-.24,1.58a5.59,5.59,0,0,0-1.59,0,3.72,3.72,0,0,0-1.31.47,3,3,0,0,0-1.14,1,1,1,0,0,0,.05,1.06.71.71,0,0,0,.55.39,1.48,1.48,0,0,0,.73-.11,9.59,9.59,0,0,0,1.05-.47l.13-.07.12-.06.06,0,.06,0a6.69,6.69,0,0,1,1.35-.52,2,2,0,0,1,1.17.08,2.24,2.24,0,0,1,1.05,1,2.82,2.82,0,0,1,.45,1.5,2.24,2.24,0,0,1-.49,1.35,5.06,5.06,0,0,1-1.43,1.2,6.17,6.17,0,0,1-1.17.55,5.56,5.56,0,0,1-1.19.28,5.68,5.68,0,0,1-1.24,0l.25-1.59a5.77,5.77,0,0,0,1.41-.11,4.12,4.12,0,0,0,1.16-.45,2.24,2.24,0,0,0,1-.92,1,1,0,0,0-.08-1,.58.58,0,0,0-.48-.32,1.44,1.44,0,0,0-.65.11c-.23.1-.55.25-1,.46l-.09.05-.11,0,0,0,0,0a6.66,6.66,0,0,1-1.44.58,2.11,2.11,0,0,1-1.29-.07,2.48,2.48,0,0,1-1.17-1.12,2.83,2.83,0,0,1-.44-1.53,2.42,2.42,0,0,1,.56-1.4,5.93,5.93,0,0,1,1.57-1.3Z"/><path class="cls-6" d="M502.8,595.05l-1.47.84-4.26-7.49,1.48-.84Zm1.71,3-1.47.84-.84-1.47,1.47-.84Z"/><path class="cls-6" d="M494.51,590.44a2.6,2.6,0,0,1,1.24,1.26l4.27,7.79-1.48.81-4.28-7.8a.8.8,0,0,0-.34-.36.43.43,0,0,0-.41,0l-.71.39-.77-1.41.86-.47A1.88,1.88,0,0,1,494.51,590.44Zm5.08,6.42-3.4,1.87-.74-1.34,3.41-1.86Z"/><path class="cls-6" d="M494.07,599.87l-1.5.79-4-7.62,1.5-.79Zm1.61,3-1.49.79-.8-1.5,1.5-.79Z"/><path class="cls-6" d="M485.21,595.13a2.86,2.86,0,0,1,1.66.6,4.54,4.54,0,0,1,1.28,1.62l.63,1.26a4.46,4.46,0,0,1,.53,2,2.86,2.86,0,0,1-.52,1.68,3.92,3.92,0,0,1-1.52,1.25,4,4,0,0,1-1.91.47,2.89,2.89,0,0,1-1.65-.59,4.46,4.46,0,0,1-1.28-1.6l-.64-1.28a4.31,4.31,0,0,1-.52-2,2.92,2.92,0,0,1,.51-1.68,4.44,4.44,0,0,1,3.43-1.72Zm-2.17,3a2.31,2.31,0,0,0,.27,1.61L484,601a2.23,2.23,0,0,0,1.13,1.17,2,2,0,0,0,2.45-1.24,2.23,2.23,0,0,0-.26-1.6l-.64-1.28a2.26,2.26,0,0,0-1.13-1.17,2,2,0,0,0-2.46,1.23Z"/><path class="cls-6" d="M475.56,605.25a2,2,0,0,0,1,1.08,1.75,1.75,0,0,0,1.42-.11,1.78,1.78,0,0,0,1-.94,1.66,1.66,0,0,0-.12-1.31l.86,1.43a3.07,3.07,0,0,1-.43,1.53,2.51,2.51,0,0,1-1.11,1,2.66,2.66,0,0,1-2.36.09,3.92,3.92,0,0,1-1.79-2l-2.21-4.73,1.53-.72Zm6.17.87-1.53.71L476.56,599l1.53-.71Z"/><path class="cls-6" d="M464.71,604.2l1,.08a3.1,3.1,0,0,1,1.7.71,4.71,4.71,0,0,1,1.22,1.76l.38.9a5,5,0,0,1,.45,2.18,3.06,3.06,0,0,1-.61,1.75,3.69,3.69,0,0,1-1.62,1.19,3.07,3.07,0,0,1-1.91.22,3.41,3.41,0,0,1-1.68-1,6.64,6.64,0,0,1-1.32-2.1l-.22-.52,5.36-2.26.53,1.25L464.08,610a2.89,2.89,0,0,0,1.13,1.3,1.57,1.57,0,0,0,1.39,0,1.85,1.85,0,0,0,1.13-1.16,2.71,2.71,0,0,0-.21-1.85l-.43-1a2.24,2.24,0,0,0-1.15-1.3,2.17,2.17,0,0,0-1.7.1,2.5,2.5,0,0,0-.86.59,2.84,2.84,0,0,0-.61.88l-1.46-.59a4.67,4.67,0,0,1,1-1.43,4,4,0,0,1,1.34-.94Z"/><path class="cls-6" d="M461.92,616.07a2.44,2.44,0,0,1,.14,1.79,2.09,2.09,0,0,1-1.3,1.12l-1.16.46-.59-1.5,1.13-.44a.4.4,0,0,0,.27-.31.76.76,0,0,0-.06-.48l-3.6-9.12,1.57-.62Zm.42-1.43-4,1.59-.53-1.34,4-1.59Z"/><path class="cls-6" d="M456.79,618.07a2.42,2.42,0,0,1,.11,1.79,2.05,2.05,0,0,1-1.32,1.1l-1.16.44-.57-1.51,1.14-.42a.41.41,0,0,0,.27-.3.78.78,0,0,0-.05-.49l-3.45-9.17,1.58-.6Zm.44-1.42-4,1.52-.51-1.35,4-1.52Z"/><path class="cls-6" d="M446.6,611.26l.95.14a2.93,2.93,0,0,1,1.65.81,4.59,4.59,0,0,1,1.12,1.83l.32.92a5.07,5.07,0,0,1,.32,2.2,3,3,0,0,1-.71,1.71,3.89,3.89,0,0,1-1.69,1.1,3.11,3.11,0,0,1-1.92.1A3.37,3.37,0,0,1,445,619a7,7,0,0,1-1.19-2.18l-.19-.53,5.48-1.93.46,1.28-4,1.4a3,3,0,0,0,1.06,1.36,1.53,1.53,0,0,0,1.38.14,1.85,1.85,0,0,0,1.2-1.09,2.7,2.7,0,0,0-.1-1.86l-.36-1a2.28,2.28,0,0,0-1.08-1.36,2.17,2.17,0,0,0-1.7,0,3,3,0,0,0-.9.54,3,3,0,0,0-.66.85l-1.41-.68a4.7,4.7,0,0,1,1-1.38,4.15,4.15,0,0,1,1.4-.84Z"/><path class="cls-6" d="M438.08,614.15l.93.17a2.91,2.91,0,0,1,1.6.82,4.28,4.28,0,0,1,1,1.79l.44,1.36a4.21,4.21,0,0,1,.2,2,3,3,0,0,1-.83,1.59,4.23,4.23,0,0,1-1.78,1,4.83,4.83,0,0,1-1.25.24,3.66,3.66,0,0,1-1.16-.12,3,3,0,0,1-1-.47l.82-1.42a2.49,2.49,0,0,0,1,.35,2.43,2.43,0,0,0,1-.1,2,2,0,0,0,1.28-1,2.11,2.11,0,0,0,0-1.63l-.44-1.35a2.19,2.19,0,0,0-1-1.34,2,2,0,0,0-1.62-.06,2.35,2.35,0,0,0-.91.54,2.43,2.43,0,0,0-.59.91l-1.53-.75a3.06,3.06,0,0,1,.54-.94,3.61,3.61,0,0,1,.87-.77,4.66,4.66,0,0,1,1.15-.53Z"/><path class="cls-6" d="M431.77,616.82a2.62,2.62,0,0,1,1,1.5l2.54,8.51-1.62.48-2.55-8.52a.72.72,0,0,0-.26-.43.4.4,0,0,0-.4-.06l-.77.23L429.2,617l.94-.28A1.87,1.87,0,0,1,431.77,616.82Zm3.64,7.35-3.72,1.11-.44-1.46,3.72-1.11Z"/><path class="cls-6" d="M423,619.11a2.88,2.88,0,0,1,1.51.92,4.51,4.51,0,0,1,.92,1.86l.36,1.35a4.41,4.41,0,0,1,.11,2,2.91,2.91,0,0,1-.85,1.54,4.44,4.44,0,0,1-3.7,1,2.93,2.93,0,0,1-1.51-.91,4.5,4.5,0,0,1-.91-1.83l-.37-1.38a4.46,4.46,0,0,1-.11-2.06,2.91,2.91,0,0,1,.85-1.54,4.35,4.35,0,0,1,3.7-1Zm-2.74,2.51a2.29,2.29,0,0,0-.06,1.63l.36,1.38a2.25,2.25,0,0,0,.87,1.38,1.75,1.75,0,0,0,1.47.18,1.77,1.77,0,0,0,1.19-.89,2.31,2.31,0,0,0,.07-1.62l-.37-1.38a2.25,2.25,0,0,0-.87-1.38,1.72,1.72,0,0,0-1.47-.19A1.74,1.74,0,0,0,420.27,621.62Z"/><path class="cls-6" d="M414.79,621.45a2.63,2.63,0,0,1,.87,1.54l2.09,8.64-1.65.39L414,623.37a.87.87,0,0,0-.23-.44.43.43,0,0,0-.4-.08l-.79.19-.38-1.56,1-.23A1.88,1.88,0,0,1,414.79,621.45ZM418,629l-3.78.91-.35-1.48,3.77-.91Z"/><path class="cls-6" d="M406.05,628.25a2,2,0,0,0,.76,1.28,2.09,2.09,0,0,0,2.57-.49,1.64,1.64,0,0,0,.18-1.29l.53,1.58a3.16,3.16,0,0,1-.77,1.38,2.57,2.57,0,0,1-1.3.71,2.67,2.67,0,0,1-2.32-.43,4,4,0,0,1-1.3-2.37l-1.11-5.11,1.65-.36Zm6.57,5.58-1.66.36-2.56-11.8,1.65-.36Z"/><path class="cls-6" d="M398.51,624.31l.92.29a3,3,0,0,1,1.51,1,4.48,4.48,0,0,1,.82,2l.18,1a5.21,5.21,0,0,1,0,2.23,3.05,3.05,0,0,1-1,1.58,3.82,3.82,0,0,1-1.84.83,3.13,3.13,0,0,1-1.91-.19,3.39,3.39,0,0,1-1.43-1.32,6.78,6.78,0,0,1-.85-2.33l-.11-.56,5.71-1.07.26,1.34-4.13.77a2.89,2.89,0,0,0,.84,1.51,1.53,1.53,0,0,0,1.34.35,1.85,1.85,0,0,0,1.35-.9,2.71,2.71,0,0,0,.19-1.85l-.21-1.08a2.25,2.25,0,0,0-.86-1.51,2.16,2.16,0,0,0-1.68-.26,2.63,2.63,0,0,0-1,.39,2.75,2.75,0,0,0-.78.74l-1.3-.89a4.68,4.68,0,0,1,1.23-1.2,4.1,4.1,0,0,1,1.52-.63Z"/><path class="cls-6" d="M388.94,633.2a2.17,2.17,0,0,0,.81,0,1.73,1.73,0,0,0,1.16-.64,1.71,1.71,0,0,0,.24-1.29l.44,1.61a3.19,3.19,0,0,1-.83,1.35,2.39,2.39,0,0,1-1.3.64,3,3,0,0,1-1.08,0,2.35,2.35,0,0,1-.91-.36l.85-1.66A1.37,1.37,0,0,0,388.94,633.2Zm4.39.94-1.67.27-1.39-8.5,1.67-.28Z"/><path class="cls-6" d="M379.68,627.36l.89.33a3,3,0,0,1,1.45,1.14,4.49,4.49,0,0,1,.71,2l.13,1a5,5,0,0,1-.15,2.22,3,3,0,0,1-1,1.52,3.87,3.87,0,0,1-1.88.72,3,3,0,0,1-1.9-.3,3.38,3.38,0,0,1-1.36-1.39,6.74,6.74,0,0,1-.71-2.38l-.07-.56,5.76-.75.18,1.35-4.17.54a2.93,2.93,0,0,0,.75,1.56,1.51,1.51,0,0,0,1.32.42A1.83,1.83,0,0,0,381,634a2.72,2.72,0,0,0,.29-1.84l-.14-1.08a2.25,2.25,0,0,0-.77-1.56,2.13,2.13,0,0,0-1.66-.36,2.63,2.63,0,0,0-1,.33,3.24,3.24,0,0,0-.82.7l-1.25-1a4.71,4.71,0,0,1,1.31-1.13,4.06,4.06,0,0,1,1.54-.54Z"/><path class="cls-6" d="M363.31,634.5a2,2,0,0,0,.61,1.36,1.7,1.7,0,0,0,1.36.37,1.49,1.49,0,0,0,1.17-.59,2,2,0,0,0,.31-1.39l.49,1.62a3.36,3.36,0,0,1-.95,1.42,2.48,2.48,0,0,1-1.42.6,2.93,2.93,0,0,1-1.62-.26,2.61,2.61,0,0,1-1.11-1.1,4.69,4.69,0,0,1-.52-1.86l-.49-5.21,1.68-.16Zm5.13-.48a2,2,0,0,0,.57,1.36,1.62,1.62,0,0,0,1.32.38,1.74,1.74,0,0,0,1.23-.56,1.65,1.65,0,0,0,.34-1.27l.33,1.64a3.12,3.12,0,0,1-.93,1.29,2.56,2.56,0,0,1-1.38.56,2.86,2.86,0,0,1-1.57-.27,2.63,2.63,0,0,1-1.09-1.1,4.86,4.86,0,0,1-.51-1.86l-.49-5.21,1.69-.16Zm5.44,2.9-1.69.16-.8-8.58,1.68-.16Z"/><path class="cls-6" d="M356.22,630a2.22,2.22,0,0,1,.94,1v1.8a2.12,2.12,0,0,0-.25-.93,1.38,1.38,0,0,0-.61-.56,1.83,1.83,0,0,0-.93-.16,1.69,1.69,0,0,0-1.27.59,2,2,0,0,0-.37,1.46l.1,1.87a2.15,2.15,0,0,0,.55,1.44,1.62,1.62,0,0,0,1.33.44,1.87,1.87,0,0,0,.9-.25,1.26,1.26,0,0,0,.54-.62,1.94,1.94,0,0,0,.15-.93l.27,1.64a3,3,0,0,1-.95,1.23,2.48,2.48,0,0,1-1.38.49,2.81,2.81,0,0,1-1.58-.32,2.56,2.56,0,0,1-1.06-1.14,4.64,4.64,0,0,1-.45-1.87l-.12-1.88a4.63,4.63,0,0,1,.24-1.89,2.61,2.61,0,0,1,.95-1.25,3,3,0,0,1,1.59-.5A2.48,2.48,0,0,1,356.22,630Zm2.94,8.2-1.69.09-.71-12.09,1.69-.1Z"/><path class="cls-6" d="M347.88,632.38a.81.81,0,0,0-.15-.48.47.47,0,0,0-.4-.15l-.79,0-.06-1.61,1,0a1.84,1.84,0,0,1,1.51.54,2.4,2.4,0,0,1,.59,1.66l.38,9.82-1.69.07Z"/><path class="cls-6" d="M343.24,630.61a3,3,0,0,1,1.24,1.26,4.61,4.61,0,0,1,.46,2l0,1.4a4.46,4.46,0,0,1-.38,2,2.88,2.88,0,0,1-1.2,1.29,3.88,3.88,0,0,1-1.91.47,4,4,0,0,1-1.92-.4,2.88,2.88,0,0,1-1.24-1.25,4.37,4.37,0,0,1-.45-2l0-1.43a4.53,4.53,0,0,1,.39-2,2.86,2.86,0,0,1,1.19-1.29,3.91,3.91,0,0,1,1.91-.47A3.84,3.84,0,0,1,343.24,630.61ZM340,632.4a2.31,2.31,0,0,0-.46,1.56l0,1.43a2.27,2.27,0,0,0,.51,1.55,1.77,1.77,0,0,0,1.38.52,1.75,1.75,0,0,0,1.37-.57,2.26,2.26,0,0,0,.46-1.56l0-1.43a2.27,2.27,0,0,0-.51-1.55,1.71,1.71,0,0,0-1.38-.53A1.73,1.73,0,0,0,340,632.4Z"/><path class="cls-6" d="M328.85,639l3.75-10.61a2.58,2.58,0,0,1,.53-.93,1.87,1.87,0,0,1,.8-.48,3.68,3.68,0,0,1,1.17-.14h.34l0,1.63h-.34a1.3,1.3,0,0,0-.75.19,1.52,1.52,0,0,0-.49.65L330.58,639Zm7.63.06-1.72,0-2.6-7.5,1-1.83Z"/><path class="cls-6" d="M317,635.14a2,2,0,0,0,.42,1.43,1.69,1.69,0,0,0,1.3.55,1.55,1.55,0,0,0,1.24-.43,2,2,0,0,0,.49-1.34l.27,1.67a3.23,3.23,0,0,1-1.13,1.28,2.46,2.46,0,0,1-1.49.41,2.92,2.92,0,0,1-1.57-.48,2.51,2.51,0,0,1-.95-1.23,4.75,4.75,0,0,1-.27-1.92l.21-5.22,1.69.07Zm5.14.21a2.08,2.08,0,0,0,.39,1.43,1.63,1.63,0,0,0,1.25.55,1.78,1.78,0,0,0,1.3-.39,1.62,1.62,0,0,0,.5-1.22l.11,1.67a3.06,3.06,0,0,1-1.09,1.16,2.59,2.59,0,0,1-1.44.37,2.83,2.83,0,0,1-1.52-.48,2.52,2.52,0,0,1-.93-1.24,4.86,4.86,0,0,1-.26-1.91l.21-5.22,1.69.06Zm5,3.6-1.7-.07.36-8.61,1.69.07Z"/><path class="cls-6" d="M310.75,629.37l.81.51a3,3,0,0,1,1.19,1.41,4.58,4.58,0,0,1,.29,2.12l-.07,1a5.29,5.29,0,0,1-.59,2.14,3.11,3.11,0,0,1-1.35,1.29,3.83,3.83,0,0,1-2,.32,3.06,3.06,0,0,1-1.79-.68,3.34,3.34,0,0,1-1.05-1.64,6.83,6.83,0,0,1-.22-2.47l0-.57,5.79.44-.1,1.36-4.19-.32a2.94,2.94,0,0,0,.42,1.68,1.54,1.54,0,0,0,1.21.68,1.83,1.83,0,0,0,1.53-.52,2.72,2.72,0,0,0,.66-1.74l.09-1.09a2.26,2.26,0,0,0-.44-1.68,2.2,2.2,0,0,0-1.56-.7,2.81,2.81,0,0,0-1,.13,3.14,3.14,0,0,0-1,.52l-1-1.2a4.82,4.82,0,0,1,1.5-.84,4.16,4.16,0,0,1,1.62-.21Z"/><path class="cls-6" d="M298.32,633.61a2,2,0,0,0,.33,1.45,1.73,1.73,0,0,0,1.27.64,1.8,1.8,0,0,0,1.32-.31,1.63,1.63,0,0,0,.57-1.18v1.67a3.16,3.16,0,0,1-1.16,1.09,2.62,2.62,0,0,1-1.46.27,2.7,2.7,0,0,1-2.07-1.13,4,4,0,0,1-.5-2.66l.54-5.2,1.69.17Zm4.85,3.92-1.68-.18.88-8.57,1.69.18Z"/><path class="cls-6" d="M294.27,636.57l-3.85-.48.19-1.52,3.85.48Zm-.35-8.19a2.63,2.63,0,0,1,.27,1.75L293.08,639l-1.68-.21,1.11-8.83a.84.84,0,0,0-.07-.5.42.42,0,0,0-.34-.22l-.8-.1.2-1.59,1,.12A1.9,1.9,0,0,1,293.92,628.38Z"/><path class="cls-6" d="M284.6,638.76l-1.67-.25.25-1.68,1.67.25Zm.51-3.42-1.67-.25,1.27-8.52,1.68.25Z"/><path class="cls-6" d="M276.18,630.47a2,2,0,0,0,.23,1.47,1.79,1.79,0,0,0,1.23.72,1.83,1.83,0,0,0,1.34-.22,1.67,1.67,0,0,0,.65-1.15l-.11,1.67a3.1,3.1,0,0,1-1.23,1,2.47,2.47,0,0,1-1.47.18,2.71,2.71,0,0,1-2-1.27,4,4,0,0,1-.32-2.69l.88-5.15,1.67.28Zm4.59,4.23-1.67-.29,1.45-8.49,1.67.28Z"/><path class="cls-6" d="M269.05,632.6l-3.81-.78.3-1.49,3.81.77Zm.26-8.2a2.6,2.6,0,0,1,.13,1.77l-1.76,8.71-1.66-.34,1.77-8.72a.81.81,0,0,0,0-.5.42.42,0,0,0-.32-.24l-.8-.16.32-1.58,1,.19A1.91,1.91,0,0,1,269.31,624.4Z"/><path class="cls-6" d="M258.5,626.87a2,2,0,0,0,.15,1.48,1.78,1.78,0,0,0,1.19.78,1.83,1.83,0,0,0,1.35-.14,1.67,1.67,0,0,0,.71-1.09l-.2,1.66a3.15,3.15,0,0,1-1.28.92,2.49,2.49,0,0,1-1.48.09A2.64,2.64,0,0,1,257,629.2a3.88,3.88,0,0,1-.18-2.7l1.15-5.1,1.66.37Zm3.59,7.83-1.65-.37,2.66-11.78,1.66.38Z"/><path class="cls-6" d="M253.33,620.11l.71.64a3,3,0,0,1,.92,1.6,4.5,4.5,0,0,1-.08,2.14l-.25.94a5.22,5.22,0,0,1-.95,2,3.07,3.07,0,0,1-1.55,1,3.81,3.81,0,0,1-2,0,3.12,3.12,0,0,1-1.65-1,3.33,3.33,0,0,1-.74-1.8,6.65,6.65,0,0,1,.21-2.48l.14-.54,5.63,1.44-.34,1.32-4.06-1a3,3,0,0,0,.11,1.73,1.56,1.56,0,0,0,1.08.88,1.81,1.81,0,0,0,1.6-.25,2.69,2.69,0,0,0,1-1.59l.27-1.06a2.25,2.25,0,0,0-.14-1.74,2.15,2.15,0,0,0-1.41-1,2.77,2.77,0,0,0-1,0,2.86,2.86,0,0,0-1,.34l-.8-1.36a4.65,4.65,0,0,1,1.63-.56,4,4,0,0,1,1.63.07Z"/><path class="cls-6" d="M241.87,617l.68.66a3,3,0,0,1,.86,1.59,4.36,4.36,0,0,1-.15,2.06l-.4,1.37a4.24,4.24,0,0,1-1,1.79,3,3,0,0,1-1.58.86,4.33,4.33,0,0,1-2-.15,4.78,4.78,0,0,1-1.17-.52,3.44,3.44,0,0,1-.89-.75,2.8,2.8,0,0,1-.55-.94l1.48-.7a2.68,2.68,0,0,0,.64.85,2.37,2.37,0,0,0,.92.5,2,2,0,0,0,1.61-.09,2.09,2.09,0,0,0,.95-1.33l.4-1.36a2.2,2.2,0,0,0-.06-1.67,2,2,0,0,0-1.31-1,2.32,2.32,0,0,0-1-.06,2.54,2.54,0,0,0-1,.41l-.84-1.47a2.89,2.89,0,0,1,1-.48,3.6,3.6,0,0,1,1.15-.14,5,5,0,0,1,1.25.2Z"/><path class="cls-6" d="M234.59,615.23a2.89,2.89,0,0,1,.76,1.59,4.59,4.59,0,0,1-.22,2.06l-.44,1.34a4.57,4.57,0,0,1-1,1.78,2.92,2.92,0,0,1-1.55.83,4.48,4.48,0,0,1-3.65-1.18,2.91,2.91,0,0,1-.77-1.59,4.47,4.47,0,0,1,.22-2l.44-1.36a4.44,4.44,0,0,1,1-1.79,2.92,2.92,0,0,1,1.55-.83,3.86,3.86,0,0,1,2,.17A4,4,0,0,1,234.59,615.23Zm-3.66.63a2.26,2.26,0,0,0-1,1.33l-.44,1.36a2.28,2.28,0,0,0,0,1.63,2,2,0,0,0,2.61.84,2.22,2.22,0,0,0,.94-1.32l.44-1.36a2.31,2.31,0,0,0,0-1.64,2,2,0,0,0-2.61-.84Z"/><path class="cls-6" d="M219.72,619l-1.59-.56,2.89-8.12,1.58.56Zm5.06-3.76a2,2,0,0,0,0-1.48,1.7,1.7,0,0,0-1.06-.9,1.78,1.78,0,0,0-1.36,0,1.66,1.66,0,0,0-.85,1l.49-1.74a2.5,2.5,0,0,1,1.18-.72,2.36,2.36,0,0,1,1.52.09,2.69,2.69,0,0,1,1.77,1.6,3.84,3.84,0,0,1-.13,2.69l-1.75,4.94-1.6-.57Z"/><path class="cls-6" d="M211.91,612.38a2,2,0,0,0-.07,1.48,1.77,1.77,0,0,0,1.06.95,1.8,1.8,0,0,0,1.36.05,1.67,1.67,0,0,0,.87-1l-.44,1.61a3.13,3.13,0,0,1-1.41.75,2.85,2.85,0,0,1-3.17-1.76,3.94,3.94,0,0,1,.22-2.7l1.89-4.88,1.58.62Zm3.65,5-1.58-.61,3.12-8,1.58.61Z"/><path class="cls-6" d="M207.22,614.15l-3.59-1.49.58-1.41,3.59,1.49Zm1.82-8a2.58,2.58,0,0,1-.2,1.76l-3.4,8.21-1.57-.65,3.41-8.22a.85.85,0,0,0,.07-.5.44.44,0,0,0-.27-.3l-.75-.31.61-1.48.91.37A1.9,1.9,0,0,1,209,606.16Z"/><path class="cls-6" d="M195.22,609l7.64-8.26a2.44,2.44,0,0,1,.86-.64,1.83,1.83,0,0,1,.93-.14,3.89,3.89,0,0,1,1.12.34l.31.13-.65,1.49-.31-.14a1.39,1.39,0,0,0-.77-.12,1.48,1.48,0,0,0-.71.4l-6.84,7.63Zm7,3.07-1.58-.7.59-7.92,1.59-1.3Z"/><path class="cls-6" d="M194.2,604.17a4.71,4.71,0,0,1-.93.84,11.28,11.28,0,0,1-1.13.67l-.79.46a3,3,0,0,0-.56.46,2.51,2.51,0,0,0-.45.65h0a1.61,1.61,0,0,0-.14,1.17,1.34,1.34,0,0,0,.77.8,1.23,1.23,0,0,0,1.15,0,2.47,2.47,0,0,0,.94-1.11h0l1.55.73h0a4.54,4.54,0,0,1-1.17,1.52A2.72,2.72,0,0,1,192,611a3,3,0,0,1-1.65-.32,3.61,3.61,0,0,1-1.38-1,2.52,2.52,0,0,1-.53-1.41,3.61,3.61,0,0,1,.38-1.68h0a3.6,3.6,0,0,1,.59-.9,4,4,0,0,1,.69-.59,10.32,10.32,0,0,1,.9-.51,9.59,9.59,0,0,0,1-.57,4,4,0,0,0,.81-.71,4.69,4.69,0,0,0,.73-1.13l1.53.72A5.6,5.6,0,0,1,194.2,604.17Zm1.44-2.61-1.53-.72.72-1.53,1.53.72Z"/><path class="cls-7" d="M167.5,598.75l-1-.57,2.53-9.45-6.53,7.17L161,595l8.52-9,1.5.85-2.23,8.43,6.19-6.19,1.5.86L173,601.9l-1.53-.87,2.82-9.28Z"/><path class="cls-7" d="M158.5,585.43a1.94,1.94,0,0,0-.34,1.45A1.73,1.73,0,0,0,159,588a1.82,1.82,0,0,0,1.32.31,1.65,1.65,0,0,0,1-.8l-.73,1.5a3,3,0,0,1-1.5.46,2.63,2.63,0,0,1-1.44-.39,2.67,2.67,0,0,1-1.36-1.92,3.94,3.94,0,0,1,.71-2.61l2.75-4.45,1.44.89Zm.84,8.57-1.44-.89,6.35-10.26,1.44.89Z"/><path class="cls-7" d="M150.64,580.64a1.82,1.82,0,0,0-.35,1.35,1.7,1.7,0,0,0,.82,1.1,3.17,3.17,0,0,0,1.9.53l.57,1.39a3.26,3.26,0,0,1-1.59.06,4.61,4.61,0,0,1-1.66-.71A4.09,4.09,0,0,1,149,583a2.62,2.62,0,0,1-.37-1.56,3.51,3.51,0,0,1,.62-1.66l3.05-4.62,1.34.88ZM157.1,579a2.45,2.45,0,0,1-.45,2.1,2.39,2.39,0,0,1-1.65,1.21,3.22,3.22,0,0,1-2.18-.67l-2-1.34.65-1.2,2.13,1.4a1.43,1.43,0,0,0,1,.3,1.13,1.13,0,0,0,.77-.57,1.11,1.11,0,0,0,.17-1.05,2.13,2.13,0,0,0-.93-1,3.8,3.8,0,0,0-1.32-.63.7.7,0,0,0-.76.28l.52-1.11a2,2,0,0,1,.78-.17,2.21,2.21,0,0,1,.82.14,3.56,3.56,0,0,1,.87.44A3.63,3.63,0,0,1,157.1,579Z"/><path class="cls-7" d="M149.34,573.81a2.57,2.57,0,0,1-.57,1.68l-5.05,7.31-1.39-1,5.06-7.32a.8.8,0,0,0,.17-.47.4.4,0,0,0-.2-.34l-.67-.47.91-1.32.81.56A1.89,1.89,0,0,1,149.34,573.81Zm-3.46,7.43-3.2-2.21.87-1.25,3.2,2.2Z"/><path class="cls-7" d="M142.09,568.41a2.91,2.91,0,0,1,.22,1.75,4.48,4.48,0,0,1-.87,1.88l-.84,1.13a4.44,4.44,0,0,1-1.53,1.37,2.82,2.82,0,0,1-1.73.29,4.43,4.43,0,0,1-3.08-2.28,2.88,2.88,0,0,1-.23-1.74,4.57,4.57,0,0,1,.86-1.86l.85-1.15a4.52,4.52,0,0,1,1.53-1.37,2.94,2.94,0,0,1,1.74-.3,4.43,4.43,0,0,1,3.08,2.28Zm-3.67-.57a2.33,2.33,0,0,0-1.32,1l-.85,1.15a2.25,2.25,0,0,0-.53,1.53,1.71,1.71,0,0,0,.78,1.26,1.75,1.75,0,0,0,1.43.38,2.33,2.33,0,0,0,1.31-1l.85-1.15a2.31,2.31,0,0,0,.54-1.55,1.71,1.71,0,0,0-.78-1.26A1.74,1.74,0,0,0,138.42,567.84Z"/><path class="cls-7" d="M135.13,563.46a2.58,2.58,0,0,1-.66,1.64l-5.44,7-1.34-1,5.45-7a.79.79,0,0,0,.2-.46.4.4,0,0,0-.18-.36l-.64-.5,1-1.27.78.6A1.89,1.89,0,0,1,135.13,563.46Zm-3.86,7.22-3.07-2.38.93-1.2,3.07,2.38Z"/><path class="cls-7" d="M124.35,560.86a2,2,0,0,0-.52,1.39,1.73,1.73,0,0,0,.71,1.23,1.76,1.76,0,0,0,1.27.47,1.57,1.57,0,0,0,1.12-.66l-.91,1.4a3.08,3.08,0,0,1-1.55.26,2.5,2.5,0,0,1-1.37-.57A2.67,2.67,0,0,1,122,562.3a4,4,0,0,1,1-2.5l3.3-4.06,1.32,1.07Zm-.26,8.61-1.32-1.07,7.62-9.36,1.31,1.07Z"/><path class="cls-7" d="M122.73,552.52s.12.29.35.89a3,3,0,0,1,.12,1.84,4.58,4.58,0,0,1-1,1.88l-.64.73a5,5,0,0,1-1.75,1.38,3.1,3.1,0,0,1-1.84.23,3.89,3.89,0,0,1-1.79-.92,3.15,3.15,0,0,1-1-1.61,3.38,3.38,0,0,1,.13-2,6.87,6.87,0,0,1,1.3-2.11l.37-.43,4.4,3.79-.89,1-3.18-2.74a3,3,0,0,0-.66,1.6,1.5,1.5,0,0,0,.57,1.26,1.84,1.84,0,0,0,1.54.5,2.72,2.72,0,0,0,1.56-1l.72-.83a2.26,2.26,0,0,0,.65-1.61,2.17,2.17,0,0,0-.84-1.48,2.55,2.55,0,0,0-.91-.51,2.78,2.78,0,0,0-1.07-.15l-.11-1.57a4.68,4.68,0,0,1,1.71.22,4.08,4.08,0,0,1,1.43.79Z"/><path class="cls-7" d="M109.83,550.58a1.89,1.89,0,0,0,.48.64,1.71,1.71,0,0,0,1.23.51,1.69,1.69,0,0,0,1.16-.62l-1,1.35a3.22,3.22,0,0,1-1.57.2,2.46,2.46,0,0,1-1.32-.62,3.25,3.25,0,0,1-.67-.85,2.35,2.35,0,0,1-.29-.93l1.83-.36A1.27,1.27,0,0,0,109.83,550.58Zm2,4-1.26-1.13,5.79-6.39,1.25,1.14Z"/><path class="cls-7" d="M108.27,539.87a2.27,2.27,0,0,1-.14,1.4l-1.34,1.2a2,2,0,0,0,.52-.81,1.38,1.38,0,0,0,0-.83,1.91,1.91,0,0,0-.52-.79,1.65,1.65,0,0,0-1.28-.54,2,2,0,0,0-1.34.71l-1.3,1.33a2.21,2.21,0,0,0-.7,1.38,1.66,1.66,0,0,0,.57,1.28,1.91,1.91,0,0,0,.79.5,1.35,1.35,0,0,0,.82,0,2,2,0,0,0,.79-.52l-1,1.31a3,3,0,0,1-1.55.12,2.55,2.55,0,0,1-1.29-.69,2.87,2.87,0,0,1-.83-1.38,2.53,2.53,0,0,1,.13-1.55,4.62,4.62,0,0,1,1.08-1.6L103,539a4.62,4.62,0,0,1,1.56-1.1,2.64,2.64,0,0,1,1.56-.14,3.13,3.13,0,0,1,1.44.83A2.57,2.57,0,0,1,108.27,539.87Zm-4.08,7.7L103,546.38l8.46-8.67,1.21,1.18Z"/><path class="cls-7" d="M102.46,534.2a2.9,2.9,0,0,1-.07,1.77,4.49,4.49,0,0,1-1.16,1.71l-1,1a4.47,4.47,0,0,1-1.73,1.1,2.9,2.9,0,0,1-1.75,0A4.46,4.46,0,0,1,94.06,537a2.87,2.87,0,0,1,.07-1.76,4.39,4.39,0,0,1,1.14-1.7l1-1a4.41,4.41,0,0,1,1.74-1.1,2.86,2.86,0,0,1,1.76,0,4.41,4.41,0,0,1,2.67,2.75ZM98.93,533a2.38,2.38,0,0,0-1.46.74l-1,1a2.23,2.23,0,0,0-.77,1.43,2,2,0,0,0,1.91,2,2.27,2.27,0,0,0,1.45-.73l1-1a2.31,2.31,0,0,0,.78-1.44,1.74,1.74,0,0,0-.56-1.37A1.77,1.77,0,0,0,98.93,533Z"/><path class="cls-7" d="M95.83,526.6l.35.6a4.79,4.79,0,0,1,.51,1.22,4.67,4.67,0,0,1,.18,1.29l-1.59.1a6,6,0,0,0-.35-1.56,3.79,3.79,0,0,0-.73-1.18,3,3,0,0,0-1.25-.9,1,1,0,0,0-1,.26.75.75,0,0,0-.27.62,1.51,1.51,0,0,0,.26.69,9.35,9.35,0,0,0,.68.93l.09.11.09.11,0,.06,0,0a6.56,6.56,0,0,1,.78,1.21,1.91,1.91,0,0,1,.16,1.16,2.21,2.21,0,0,1-.77,1.24,2.89,2.89,0,0,1-1.37.75,2.24,2.24,0,0,1-1.42-.21A4.76,4.76,0,0,1,88.75,532a6.57,6.57,0,0,1-.77-1,5.58,5.58,0,0,1-.52-1.11,6.07,6.07,0,0,1-.27-1.21l1.6-.08a6,6,0,0,0,.4,1.36,4.25,4.25,0,0,0,.68,1,2.33,2.33,0,0,0,1.09.75,1,1,0,0,0,1-.28.61.61,0,0,0,.22-.53,1.53,1.53,0,0,0-.25-.62c-.14-.21-.36-.49-.65-.84l-.06-.09a.27.27,0,0,1-.07-.08l0,0,0,0a7.73,7.73,0,0,1-.87-1.3,2.13,2.13,0,0,1-.19-1.27,2.46,2.46,0,0,1,.86-1.38,2.77,2.77,0,0,1,1.4-.75,2.38,2.38,0,0,1,1.49.27A5.73,5.73,0,0,1,95.32,526Z"/><path class="cls-7" d="M90,520.11l.33.6a5,5,0,0,1,.62,2.54l-1.59,0a5.75,5.75,0,0,0-.31-1.57,3.93,3.93,0,0,0-.69-1.2,2.88,2.88,0,0,0-1.23-.93,1,1,0,0,0-1,.23.72.72,0,0,0-.29.62,1.4,1.4,0,0,0,.24.69c.14.24.36.55.65,1l.09.11a.83.83,0,0,1,.08.12.1.1,0,0,1,0,0l0,0a6.15,6.15,0,0,1,.75,1.23,2,2,0,0,1,.13,1.17A2.24,2.24,0,0,1,87,526a2.87,2.87,0,0,1-1.39.72,2.29,2.29,0,0,1-1.41-.25,4.88,4.88,0,0,1-1.45-1.19,6.48,6.48,0,0,1-.74-1,5.6,5.6,0,0,1-.49-1.13,5.9,5.9,0,0,1-.24-1.21l1.61,0a5.49,5.49,0,0,0,.36,1.37,3.86,3.86,0,0,0,.65,1.06,2.39,2.39,0,0,0,1.07.78,1,1,0,0,0,1-.25.59.59,0,0,0,.24-.53,1.53,1.53,0,0,0-.23-.62c-.14-.21-.35-.5-.63-.86a.24.24,0,0,0-.06-.09l-.06-.09,0,0a.05.05,0,0,1,0,0,6.83,6.83,0,0,1-.83-1.32,2.07,2.07,0,0,1-.16-1.28,2.49,2.49,0,0,1,.9-1.35,2.85,2.85,0,0,1,1.42-.71,2.45,2.45,0,0,1,1.48.31,5.57,5.57,0,0,1,1.55,1.31Z"/><path class="cls-7" d="M76.44,523l-1.08-1.31,1.3-1.08,1.08,1.3Zm2.66-2.22L78,519.5,84.63,514l1.09,1.3Z"/><path class="cls-7" d="M73.58,519.57l-1.06-1.32L82,510.72,83,512Zm7.7-9.28a2.29,2.29,0,0,1-.31,1.36l-1.48,1a2,2,0,0,0,.62-.75,1.37,1.37,0,0,0,.1-.82,1.72,1.72,0,0,0-.41-.85,1.64,1.64,0,0,0-1.2-.7,2.12,2.12,0,0,0-1.42.54l-1.46,1.17a2.13,2.13,0,0,0-.86,1.27,1.63,1.63,0,0,0,.4,1.34,2,2,0,0,0,.73.6,1.35,1.35,0,0,0,.82.08,1.85,1.85,0,0,0,.84-.42l-1.18,1.17a3,3,0,0,1-1.55-.07,2.53,2.53,0,0,1-1.2-.84,2.79,2.79,0,0,1-.65-1.48,2.53,2.53,0,0,1,.32-1.52A4.68,4.68,0,0,1,74.66,510l1.47-1.17a4.47,4.47,0,0,1,1.68-.9,2.62,2.62,0,0,1,1.57.06,3,3,0,0,1,1.32,1A2.5,2.5,0,0,1,81.28,510.29Z"/><path class="cls-7" d="M74.55,504.85a.69.69,0,0,0,.3-.4.45.45,0,0,0-.1-.41l-.48-.63,1.28-1,.61.79a1.86,1.86,0,0,1,.42,1.55,2.43,2.43,0,0,1-1,1.44l-7.82,5.95-1-1.34Z"/><path class="cls-7" d="M73.13,499s0,.32.13.95a3,3,0,0,1-.3,1.82,4.64,4.64,0,0,1-1.44,1.59l-.79.57a5.13,5.13,0,0,1-2,.94,3.14,3.14,0,0,1-1.85-.2,3.82,3.82,0,0,1-1.53-1.31,3.13,3.13,0,0,1-.65-1.8,3.47,3.47,0,0,1,.58-1.87A6.76,6.76,0,0,1,67,497.94l.45-.33,3.42,4.7-1.11.8-2.46-3.4a2.88,2.88,0,0,0-1,1.4,1.55,1.55,0,0,0,.27,1.37,1.81,1.81,0,0,0,1.38.83,2.68,2.68,0,0,0,1.75-.62l.89-.65a2.22,2.22,0,0,0,1-1.42,2.12,2.12,0,0,0-.48-1.63,2.59,2.59,0,0,0-.77-.7,2.8,2.8,0,0,0-1-.4l.25-1.55a5,5,0,0,1,1.61.6,4,4,0,0,1,1.21,1.1Z"/><path class="cls-7" d="M57.52,498.05l-1-1.4L58,495.7l1,1.4Zm2.85-1.94-.95-1.4,7.13-4.85,1,1.4Z"/><path class="cls-7" d="M57.91,486.24a1.93,1.93,0,0,0-.92,1.17,1.72,1.72,0,0,0,.3,1.38,1.74,1.74,0,0,0,1.07.84,1.65,1.65,0,0,0,1.28-.29l-1.3,1.05a3.12,3.12,0,0,1-1.57-.22,2.53,2.53,0,0,1-1.13-1,2.65,2.65,0,0,1-.41-2.32A3.87,3.87,0,0,1,57,484.83L61.38,482l.92,1.42Zm0,6.24L57,491.06l7.23-4.69.92,1.42Z"/><path class="cls-7" d="M47.19,481.92l-.88-1.45,10.33-6.25.88,1.45ZM59.25,479a2.56,2.56,0,0,1-.5,1.49,4.67,4.67,0,0,1-1.44,1.28l-1.63,1a4.68,4.68,0,0,1-1.8.7,2.56,2.56,0,0,1-1.54-.23,2.85,2.85,0,0,1-1.16-1.13,2.57,2.57,0,0,1-.38-1.4,3,3,0,0,1,.43-1.46l1.59-.76a2.13,2.13,0,0,0-.7.66,1.41,1.41,0,0,0-.21.8,2.09,2.09,0,0,0,.3.89,1.64,1.64,0,0,0,1.12.84,2.16,2.16,0,0,0,1.5-.37l1.6-1a2.1,2.1,0,0,0,1-1.14,1.68,1.68,0,0,0-.24-1.38,1.92,1.92,0,0,0-.66-.67,1.36,1.36,0,0,0-.82-.18,2.12,2.12,0,0,0-.92.32l1.5-1a2.44,2.44,0,0,1,1.35.17,2.35,2.35,0,0,1,1.12,1A3.11,3.11,0,0,1,59.25,479Z"/><path class="cls-7" d="M45.34,471.8l-.83-1.47L52,466.1l.83,1.47Zm6.28.48a2,2,0,0,0,1-1.09,1.64,1.64,0,0,0-.21-1.37,1.76,1.76,0,0,0-1-.91,1.66,1.66,0,0,0-1.32.22l1.51-1a2.51,2.51,0,0,1,1.36.23,2.46,2.46,0,0,1,1.1,1.07,2.71,2.71,0,0,1,.28,2.37,3.86,3.86,0,0,1-1.87,1.94l-4.56,2.58-.83-1.48Z"/><path class="cls-7" d="M49.87,461.82l.18.66a5,5,0,0,1,.18,1.31,4.78,4.78,0,0,1-.16,1.3l-1.56-.31a6.27,6.27,0,0,0,.06-1.6,3.82,3.82,0,0,0-.4-1.33,2.92,2.92,0,0,0-1-1.19,1,1,0,0,0-1.06,0,.75.75,0,0,0-.42.53,1.56,1.56,0,0,0,.07.73A11.13,11.13,0,0,0,46.2,463l.06.12a.78.78,0,0,1,.05.14s0,0,0,.06l0,.06a6.3,6.3,0,0,1,.44,1.37,1.87,1.87,0,0,1-.14,1.16,2.25,2.25,0,0,1-1.06,1,2.81,2.81,0,0,1-1.52.37,2.25,2.25,0,0,1-1.32-.56,4.74,4.74,0,0,1-1.13-1.5,6.36,6.36,0,0,1-.49-1.19,6.26,6.26,0,0,1-.21-1.21,5.68,5.68,0,0,1,.05-1.23l1.57.33a5.53,5.53,0,0,0,0,1.42,4.08,4.08,0,0,0,.38,1.18,2.36,2.36,0,0,0,.87,1,1,1,0,0,0,1,0,.6.6,0,0,0,.35-.46,1.43,1.43,0,0,0-.08-.66c-.08-.24-.22-.57-.41-1a.36.36,0,0,0,0-.09.42.42,0,0,1,0-.1l0-.05a.43.43,0,0,1,0-.05,7.19,7.19,0,0,1-.51-1.47,2.11,2.11,0,0,1,.15-1.28,2.47,2.47,0,0,1,1.18-1.11,2.71,2.71,0,0,1,1.55-.36,2.42,2.42,0,0,1,1.37.63,5.86,5.86,0,0,1,1.21,1.64Z"/><path class="cls-7" d="M46,455.74a2.58,2.58,0,0,1-1.31,1.19l-8,3.94L36,459.35l8-3.94a.91.91,0,0,0,.38-.33.44.44,0,0,0,0-.4L44,454l1.44-.72.44.88A1.89,1.89,0,0,1,46,455.74Zm-6.63,4.81-1.73-3.48L39,456.4l1.73,3.48Z"/><path class="cls-7" d="M36.29,450.41a2,2,0,0,0,.21.77,1.65,1.65,0,0,0,.93.94,1.59,1.59,0,0,0,1.3-.12l-1.43.87a3.29,3.29,0,0,1-1.52-.43,2.5,2.5,0,0,1-1-1.08,3.49,3.49,0,0,1-.3-1,2.44,2.44,0,0,1,.1-1l1.83.37A1.34,1.34,0,0,0,36.29,450.41Zm.3,4.47-.72-1.53,7.8-3.66.72,1.53Z"/><path class="cls-7" d="M30.35,449.6l-.69-1.55,1.54-.69.69,1.55Zm3.15-1.41-.69-1.55,7.87-3.5.69,1.54Z"/><path class="cls-7" d="M38.88,438.66l-.09.95a3,3,0,0,1-.71,1.7,4.71,4.71,0,0,1-1.76,1.22l-.9.37a5,5,0,0,1-2.18.45,3.06,3.06,0,0,1-1.75-.61,3.81,3.81,0,0,1-1.19-1.62,3.15,3.15,0,0,1-.22-1.91,3.42,3.42,0,0,1,1-1.68,6.88,6.88,0,0,1,2.1-1.32l.52-.22,2.25,5.36-1.25.53L33.06,438a2.84,2.84,0,0,0-1.3,1.13,1.51,1.51,0,0,0-.05,1.39,1.84,1.84,0,0,0,1.15,1.13,2.71,2.71,0,0,0,1.85-.21l1-.42a2.23,2.23,0,0,0,1.3-1.16,2.13,2.13,0,0,0-.09-1.7,2.84,2.84,0,0,0-.58-.86,3.2,3.2,0,0,0-.89-.61l.6-1.45a4.61,4.61,0,0,1,1.43,1,4.15,4.15,0,0,1,.93,1.34C38.72,438.29,38.88,438.66,38.88,438.66Z"/><path class="cls-7" d="M35.51,430.34s0,.23.1.68a5,5,0,0,1,0,1.33,5.05,5.05,0,0,1-.31,1.26l-1.52-.49a5.45,5.45,0,0,0,.25-1.58,3.83,3.83,0,0,0-.24-1.37,3,3,0,0,0-.83-1.29,1,1,0,0,0-1.05-.13.76.76,0,0,0-.49.48,1.62,1.62,0,0,0,0,.73c0,.27.15.64.29,1.12,0,0,0,.08.05.13a.74.74,0,0,0,0,.14.14.14,0,0,0,0,.06s0,0,0,.06a6.88,6.88,0,0,1,.29,1.42,2,2,0,0,1-.28,1.14,2.24,2.24,0,0,1-1.17.86,2.91,2.91,0,0,1-1.55.2,2.3,2.3,0,0,1-1.25-.71,5,5,0,0,1-.95-1.62,6.66,6.66,0,0,1-.34-1.25,5.52,5.52,0,0,1-.08-1.22,5.86,5.86,0,0,1,.2-1.22l1.52.51a5.41,5.41,0,0,0-.13,1.41,4,4,0,0,0,.25,1.22,2.25,2.25,0,0,0,.74,1.1,1,1,0,0,0,1,.09.58.58,0,0,0,.4-.42,1.35,1.35,0,0,0,0-.66,10,10,0,0,0-.28-1l0-.1a.49.49,0,0,1,0-.11v0a.07.07,0,0,1,0-.05,7.36,7.36,0,0,1-.33-1.52,2.1,2.1,0,0,1,.29-1.26,2.52,2.52,0,0,1,1.3-1,2.8,2.8,0,0,1,1.58-.18,2.4,2.4,0,0,1,1.29.79,5.85,5.85,0,0,1,1,1.77Z"/><path class="cls-7" d="M35.21,423.38l.55,1.53H19l-.54-1.52Z"/><path class="cls-7" d="M19.49,421.92,19,420.28l1.6-.54.55,1.64Zm13.69-3.09-.3-.9a.46.46,0,0,0-.27-.29.81.81,0,0,0-.5,0l-9.35,3.12-.53-1.6,9.32-3.12a2.46,2.46,0,0,1,1.77,0,1.92,1.92,0,0,1,1,1.22l.35,1.06Z"/><path class="cls-7" d="M28.89,412.84a3,3,0,0,1-.87,1.54,4.62,4.62,0,0,1-1.81,1l-1.34.41a4.48,4.48,0,0,1-2,.19,2.89,2.89,0,0,1-1.58-.78,4,4,0,0,1-1-1.71,4,4,0,0,1-.15-2A2.87,2.87,0,0,1,21,410a4.24,4.24,0,0,1,1.79-1l1.36-.42a4.37,4.37,0,0,1,2.05-.19,2.86,2.86,0,0,1,1.57.78,3.89,3.89,0,0,1,1,1.7A4,4,0,0,1,28.89,412.84Zm-2.62-2.64a2.3,2.3,0,0,0-1.64,0l-1.36.42a2.29,2.29,0,0,0-1.34.92,2,2,0,0,0,.81,2.63,2.27,2.27,0,0,0,1.63,0l1.36-.42a2.31,2.31,0,0,0,1.35-.92,2,2,0,0,0-.81-2.63Z"/><path class="cls-7" d="M15.29,408.49l-.45-1.63,11.64-3.21.44,1.64ZM26,403a2.3,2.3,0,0,1-.82,1.14l-1.77.36a2,2,0,0,0,.86-.44,1.41,1.41,0,0,0,.43-.72,1.91,1.91,0,0,0,0-.94,1.65,1.65,0,0,0-.83-1.11,2.05,2.05,0,0,0-1.52-.06l-1.8.49a2.16,2.16,0,0,0-1.29.84,1.64,1.64,0,0,0-.16,1.39,2,2,0,0,0,.44.83,1.3,1.3,0,0,0,.71.4,2.08,2.08,0,0,0,1-.05l-1.56.6a3,3,0,0,1-1.39-.67,2.52,2.52,0,0,1-.77-1.24,2.89,2.89,0,0,1,0-1.62,2.58,2.58,0,0,1,.89-1.27,4.84,4.84,0,0,1,1.75-.84l1.81-.5a4.55,4.55,0,0,1,1.9-.16,2.65,2.65,0,0,1,1.42.67,3.09,3.09,0,0,1,.82,1.44A2.59,2.59,0,0,1,26,403Z"/><path class="cls-7" d="M24.11,394.2s0,.23,0,.68A5.19,5.19,0,0,1,24,396.2a4.92,4.92,0,0,1-.48,1.22l-1.44-.68a5.42,5.42,0,0,0,.45-1.54,3.94,3.94,0,0,0-.06-1.38,2.9,2.9,0,0,0-.66-1.39,1,1,0,0,0-1-.27.71.71,0,0,0-.54.41,1.68,1.68,0,0,0-.11.73c0,.27.07.66.15,1.14l0,.14c0,.05,0,.1,0,.14a.15.15,0,0,1,0,.07s0,0,0,.06a7,7,0,0,1,.1,1.44,1.9,1.9,0,0,1-.42,1.1,2.25,2.25,0,0,1-1.27.7,2.78,2.78,0,0,1-1.57,0,2.28,2.28,0,0,1-1.14-.87,4.82,4.82,0,0,1-.73-1.72,6.61,6.61,0,0,1-.19-1.28,6.15,6.15,0,0,1,.09-1.22,5.36,5.36,0,0,1,.35-1.19l1.44.7a5.84,5.84,0,0,0-.31,1.39,4.2,4.2,0,0,0,.09,1.24,2.45,2.45,0,0,0,.59,1.19,1,1,0,0,0,1,.21.63.63,0,0,0,.45-.37,1.47,1.47,0,0,0,.08-.65c0-.25-.08-.6-.16-1.06a.36.36,0,0,0,0-.1s0-.07,0-.11l0-.05v-.05a7.56,7.56,0,0,1-.13-1.55,2.1,2.1,0,0,1,.45-1.21,2.46,2.46,0,0,1,1.42-.79,2.75,2.75,0,0,1,1.59,0,2.42,2.42,0,0,1,1.17.94,5.76,5.76,0,0,1,.77,1.89Z"/><path class="cls-7" d="M14.79,376.06a2,2,0,0,0-1.3.74,1.74,1.74,0,0,0-.23,1.39,1.52,1.52,0,0,0,.7,1.11,2,2,0,0,0,1.42.17l-1.57.65a3.3,3.3,0,0,1-1.5-.81,2.51,2.51,0,0,1-.74-1.36,3,3,0,0,1,.1-1.64,2.67,2.67,0,0,1,1-1.21,4.84,4.84,0,0,1,1.8-.7l5.14-1,.32,1.66Zm1,5.06a2,2,0,0,0-1.3.71,1.62,1.62,0,0,0-.25,1.34,1.75,1.75,0,0,0,.67,1.17,1.66,1.66,0,0,0,1.3.21l-1.59.49a3.06,3.06,0,0,1-1.38-.8,2.52,2.52,0,0,1-.69-1.32,2.8,2.8,0,0,1,.12-1.59,2.6,2.6,0,0,1,1-1.18,4.84,4.84,0,0,1,1.8-.69l5.14-1,.32,1.66Zm-2.36,5.69-.32-1.66,8.46-1.62.32,1.66Z"/><path class="cls-7" d="M13.11,367a1.8,1.8,0,0,0-1.23.64,1.69,1.69,0,0,0-.27,1.34,3.31,3.31,0,0,0,.3,1,3.2,3.2,0,0,0,.57.8l-.65,1.35a3.14,3.14,0,0,1-1.1-1.13,4.67,4.67,0,0,1-.59-1.72,4,4,0,0,1,.1-1.87,2.59,2.59,0,0,1,.91-1.31,3.52,3.52,0,0,1,1.65-.65l5.47-.83.24,1.59Zm5.55,3.7a2.45,2.45,0,0,1-1.87,1.08,2.38,2.38,0,0,1-2-.43,3.15,3.15,0,0,1-1-2.06l-.37-2.42,1.33-.32.38,2.53a1.51,1.51,0,0,0,.44.94,1.14,1.14,0,0,0,.94.18,1.1,1.1,0,0,0,.9-.57,2.3,2.3,0,0,0,.11-1.36,4,4,0,0,0-.42-1.4.67.67,0,0,0-.71-.37l1.17-.36a2.18,2.18,0,0,1,.65.46,2.38,2.38,0,0,1,.44.7,4.53,4.53,0,0,1,0,3.4Z"/><path class="cls-7" d="M8.6,356.77l11,2.34a2.5,2.5,0,0,1,1,.4,1.84,1.84,0,0,1,.59.73,3.64,3.64,0,0,1,.29,1.14l0,.34-1.61.2,0-.34a1.4,1.4,0,0,0-.28-.73,1.64,1.64,0,0,0-.71-.4l-10.06-2Zm.93,7.57-.21-1.72,7.11-3.54,1.94.71Z"/><path class="cls-7" d="M16.65,349.13l-.36.87a3,3,0,0,1-1.17,1.38,4.32,4.32,0,0,1-2,.61l-1.41.12a4.35,4.35,0,0,1-2-.27,2.93,2.93,0,0,1-1.37-1.16,4.32,4.32,0,0,1-.61-2,4.52,4.52,0,0,1,.06-1.28,3.57,3.57,0,0,1,.37-1.1,3,3,0,0,1,.68-.85L10,346.6a2.61,2.61,0,0,0-.56.91,2.45,2.45,0,0,0-.14,1A2,2,0,0,0,10,350a2.07,2.07,0,0,0,1.58.41L13,350.3a2.16,2.16,0,0,0,1.52-.67,2,2,0,0,0,.43-1.56,2.28,2.28,0,0,0-.33-1,2.53,2.53,0,0,0-.75-.78L14.94,345a2.92,2.92,0,0,1,.8.73,3.75,3.75,0,0,1,.55,1,4.4,4.4,0,0,1,.26,1.24C16.62,348.74,16.65,349.13,16.65,349.13Z"/><path class="cls-7" d="M15.65,341.72A2.85,2.85,0,0,1,14.44,343a4.57,4.57,0,0,1-2,.53l-1.4.08a4.46,4.46,0,0,1-2-.31,2.91,2.91,0,0,1-1.33-1.14,4.08,4.08,0,0,1-.55-1.89,4,4,0,0,1,.33-1.94,2.88,2.88,0,0,1,1.2-1.29,4.51,4.51,0,0,1,2-.53l1.43-.08a4.46,4.46,0,0,1,2,.31,2.93,2.93,0,0,1,1.34,1.14,4.08,4.08,0,0,1,.55,1.89A3.86,3.86,0,0,1,15.65,341.72Zm-1.9-3.19a2.36,2.36,0,0,0-1.59-.4l-1.43.08a2.31,2.31,0,0,0-1.52.57,1.8,1.8,0,0,0-.47,1.41,1.71,1.71,0,0,0,.63,1.34,2.29,2.29,0,0,0,1.57.4l1.43-.08a2.27,2.27,0,0,0,1.53-.58,1.74,1.74,0,0,0,.48-1.4A1.77,1.77,0,0,0,13.75,338.53Z"/><path class="cls-7" d="M10.14,323.74a2,2,0,0,0-1.4.5,1.74,1.74,0,0,0-.48,1.34,1.59,1.59,0,0,0,.5,1.21,2,2,0,0,0,1.37.41l-1.65.36a3.28,3.28,0,0,1-1.35-1.05,2.51,2.51,0,0,1-.49-1.46,3,3,0,0,1,.38-1.6,2.6,2.6,0,0,1,1.19-1,4.64,4.64,0,0,1,1.89-.38l5.23-.09,0,1.69Zm.09,5.15a2.08,2.08,0,0,0-1.41.47,1.6,1.6,0,0,0-.47,1.28,1.7,1.7,0,0,0,.46,1.27,1.61,1.61,0,0,0,1.24.43l-1.66.21a3.17,3.17,0,0,1-1.22-1,2.48,2.48,0,0,1-.44-1.42,2.77,2.77,0,0,1,.38-1.55,2.66,2.66,0,0,1,1.18-1,5.1,5.1,0,0,1,1.9-.37l5.23-.08,0,1.69Zm-3.31,5.2,0-1.69,8.61-.15,0,1.7Z"/><path class="cls-7" d="M15.57,317.17l-.47.84a3.08,3.08,0,0,1-1.34,1.26,4.74,4.74,0,0,1-2.11.4l-1,0a4.9,4.9,0,0,1-2.17-.47,3,3,0,0,1-1.35-1.27,3.75,3.75,0,0,1-.43-2,3,3,0,0,1,.58-1.83A3.3,3.3,0,0,1,8.89,313a6.59,6.59,0,0,1,2.46-.35h.56l-.12,5.81-1.37,0,.1-4.2a2.86,2.86,0,0,0-1.65.51A1.52,1.52,0,0,0,8.25,316a1.87,1.87,0,0,0,.6,1.51,2.66,2.66,0,0,0,1.77.56l1.1,0a2.25,2.25,0,0,0,1.65-.53,2.14,2.14,0,0,0,.61-1.59,2.67,2.67,0,0,0-.18-1,2.94,2.94,0,0,0-.56-.91l1.13-1.09a4.63,4.63,0,0,1,.92,1.45,4.21,4.21,0,0,1,.3,1.61Z"/><path class="cls-7" d="M3.72,306.94l.09-1.69,1.69.09L5.41,307Zm3.45.19.09-1.69,8.6.46-.09,1.69Z"/><path class="cls-7" d="M7.41,302.75l.12-1.69,8.6.65L16,303.4Zm3.78-5a2,2,0,0,0-1.45.37,1.73,1.73,0,0,0-.59,1.28,1.76,1.76,0,0,0,.34,1.31,1.63,1.63,0,0,0,1.2.55L9,301.35a3.1,3.1,0,0,1-1.12-1.13,2.54,2.54,0,0,1-.32-1.45,2.68,2.68,0,0,1,1.08-2.1,4,4,0,0,1,2.65-.57l5.21.4-.13,1.69Z"/><path class="cls-7" d="M16.6,290.38a2.59,2.59,0,0,1-1.75.3L6,289.7,6.21,288l8.85,1a.81.81,0,0,0,.49-.07.4.4,0,0,0,.21-.35l.09-.81,1.6.18-.1,1A1.89,1.89,0,0,1,16.6,290.38Zm-8.18.48L8.85,287l1.52.16L9.94,291Z"/><path class="cls-7" d="M5.71,284.08l.23-1.68,12,1.63-.23,1.68Zm7.49-4.26a2,2,0,0,0-1.46.28,1.74,1.74,0,0,0-.67,1.25,1.78,1.78,0,0,0,.25,1.33,1.59,1.59,0,0,0,1.15.61l-1.67-.05a3.06,3.06,0,0,1-1-1.19,2.55,2.55,0,0,1-.23-1.47,2.67,2.67,0,0,1,1.21-2,3.83,3.83,0,0,1,2.67-.41l5.18.7-.23,1.68Z"/><path class="cls-7" d="M19.53,273.92l-.62.8a3.15,3.15,0,0,1-1.6,1.12,4.73,4.73,0,0,1-2.27.09l-1-.17a5.41,5.41,0,0,1-2.2-.83,3.21,3.21,0,0,1-1.22-1.54,3.94,3.94,0,0,1-.15-2.13,3.17,3.17,0,0,1,.89-1.82,3.5,3.5,0,0,1,1.83-.95,7.25,7.25,0,0,1,2.63,0l.59.1-1,6.07L14,274.43l.74-4.39a3.17,3.17,0,0,0-1.81.28,1.64,1.64,0,0,0-.83,1.21,2,2,0,0,0,.4,1.67,2.86,2.86,0,0,0,1.77.86l1.14.2a2.44,2.44,0,0,0,1.82-.3,2.3,2.3,0,0,0,.88-1.57,2.78,2.78,0,0,0,0-1.11,2.91,2.91,0,0,0-.45-1l1.36-1a5,5,0,0,1,.74,1.67,4.41,4.41,0,0,1,.07,1.73Z"/><path class="cls-7" d="M11.68,261.75a2.42,2.42,0,0,1-1.57-.86,2.1,2.1,0,0,1-.23-1.7l.25-1.22,1.57.32-.24,1.19a.39.39,0,0,0,.11.39.77.77,0,0,0,.43.22l9.61,2-.34,1.65Zm1,1.13.87-4.22,1.41.3-.86,4.21Z"/><path class="cls-7" d="M19.38,256.36a2,2,0,0,0,1.47-.13,1.68,1.68,0,0,0,.77-1.15,1.76,1.76,0,0,0-.14-1.36,1.64,1.64,0,0,0-1.11-.72l1.78.29a2.62,2.62,0,0,1,.85,1.08,2.39,2.39,0,0,1,.08,1.53,2.7,2.7,0,0,1-1.39,1.94A3.86,3.86,0,0,1,19,258l-5.1-1.18.38-1.65Zm-4.31-4.59.38-1.64,8.39,1.94-.38,1.64Z"/><path class="cls-7" d="M24.12,248.84a2.62,2.62,0,0,1-1.77,0l-8.6-2.22.42-1.64,8.62,2.22a.78.78,0,0,0,.5,0,.44.44,0,0,0,.25-.32l.21-.78,1.56.4-.25.95A1.91,1.91,0,0,1,24.12,248.84ZM16,248.15l1-3.77,1.48.39-1,3.76Z"/><path class="cls-7" d="M23.05,241.79a2,2,0,0,0,1.48-.06,1.68,1.68,0,0,0,.83-1.11,1.79,1.79,0,0,0-.07-1.36,1.68,1.68,0,0,0-1.08-.78l1.76.38a2.47,2.47,0,0,1,.81,2.66,2.71,2.71,0,0,1-1.49,1.86,3.86,3.86,0,0,1-2.7,0l-5-1.43.47-1.63ZM19,237l.46-1.62,8.29,2.36-.47,1.62Z"/><path class="cls-7" d="M20.24,232.77l.51-1.61L29,233.75l-.5,1.61Zm2.81-3.49a2,2,0,0,0-.37.71,1.66,1.66,0,0,0,0,1.32,1.7,1.7,0,0,0,1,.8l-1.63-.34a3.16,3.16,0,0,1-.84-1.34,2.43,2.43,0,0,1,0-1.46,3.32,3.32,0,0,1,.48-1,2.38,2.38,0,0,1,.73-.65l1.09,1.51A1.32,1.32,0,0,0,23.05,229.28Z"/><path class="cls-7" d="M31.46,226.53l-.7.65a3,3,0,0,1-1.66.79,4.53,4.53,0,0,1-2.13-.26l-.92-.32a5.1,5.1,0,0,1-1.92-1.12,3,3,0,0,1-.9-1.62,3.82,3.82,0,0,1,.19-2,3.13,3.13,0,0,1,1.12-1.57,3.34,3.34,0,0,1,1.85-.59,6.75,6.75,0,0,1,2.45.42l.53.18-1.9,5.49-1.28-.44,1.37-4a2.91,2.91,0,0,0-1.73,0,1.51,1.51,0,0,0-1,1,1.82,1.82,0,0,0,.11,1.62,2.7,2.7,0,0,0,1.51,1.08l1,.36a2.27,2.27,0,0,0,1.74,0,2.15,2.15,0,0,0,1.06-1.33,2.68,2.68,0,0,0,.14-1,2.9,2.9,0,0,0-.26-1l1.42-.69a4.63,4.63,0,0,1,.43,1.67,4,4,0,0,1-.21,1.62Z"/><path class="cls-7" d="M29.7,217.23a4.82,4.82,0,0,1-.92-.86A12.37,12.37,0,0,1,28,215.3c-.2-.32-.38-.57-.51-.76A3.12,3.12,0,0,0,27,214a2.37,2.37,0,0,0-.68-.39h0a1.57,1.57,0,0,0-1.18,0,1.31,1.31,0,0,0-.73.82,1.23,1.23,0,0,0,.09,1.15,2.31,2.31,0,0,0,1.18.85h0L25.07,218h0a4.54,4.54,0,0,1-1.6-1,2.7,2.7,0,0,1-.73-1.42,3.22,3.22,0,0,1,.19-1.68,3.65,3.65,0,0,1,.94-1.45,2.41,2.41,0,0,1,1.37-.63,3.5,3.5,0,0,1,1.7.24h0a3.24,3.24,0,0,1,.94.52,3.52,3.52,0,0,1,.64.64c.17.22.36.51.58.86a9.8,9.8,0,0,0,.65,1,4,4,0,0,0,.77.76,4.83,4.83,0,0,0,1.18.63L31.1,218A5.27,5.27,0,0,1,29.7,217.23Zm2.71,1.24.6-1.59,1.58.6-.6,1.58Z"/></svg>